<svg width="13" height="13" viewBox="0 0 13 13" fill="none" xmlns="http://www.w3.org/2000/svg">
<path fill-rule="evenodd" clip-rule="evenodd" d="M9.10495 8.77755L9.10494 8.77756C8.97113 8.96726 8.87997 9.0976 8.81898 9.20234C8.80784 9.22148 8.79943 9.2369 8.79319 9.24892V11.0866C8.79319 11.9349 8.10622 12.6211 7.25967 12.6227C7.05652 12.7995 6.79106 12.9067 6.50003 12.9067C6.20899 12.9067 5.94353 12.7995 5.74038 12.6227C4.89383 12.6211 4.20687 11.9349 4.20687 11.0866V9.25102C4.20081 9.23954 4.1928 9.22505 4.18233 9.20723C4.12143 9.10359 4.03032 8.9745 3.89622 8.78615L3.8962 8.78613C3.88519 8.77065 3.87393 8.75487 3.86246 8.73878C3.43044 8.13291 2.68684 7.09006 2.69371 5.78775C2.69497 3.68666 4.39863 1.98376 6.50003 1.98376C8.6022 1.98376 10.3063 3.68791 10.3063 5.79008V5.79475L10.3063 5.79475C10.2986 7.08776 9.56622 8.12453 9.13766 8.73122C9.12655 8.74695 9.11563 8.7624 9.10495 8.77755ZM3.47371 5.79008C3.46745 6.83895 4.08374 7.70464 4.53162 8.33376C4.78653 8.69177 4.98687 8.97317 4.98687 9.16811V11.0866C4.98687 11.5045 5.32561 11.8427 5.74345 11.8427H6.13361C6.17551 12.006 6.32367 12.1266 6.50003 12.1266C6.67638 12.1266 6.82454 12.006 6.86645 11.8427H7.25661C7.67445 11.8427 8.01319 11.5045 8.01319 11.0866V9.16811C8.01319 8.97212 8.21307 8.68874 8.46755 8.32796C8.91095 7.69934 9.52009 6.83575 9.52634 5.79008C9.52634 4.11869 8.17141 2.76376 6.50003 2.76376C4.82864 2.76376 3.47371 4.11869 3.47371 5.79008Z" />
<path fill-rule="evenodd" clip-rule="evenodd" d="M5.38065 10.0985C5.31254 9.89418 5.42297 9.67331 5.62731 9.6052L7.15708 9.09528C7.36141 9.02717 7.58228 9.1376 7.65039 9.34194C7.7185 9.54628 7.60807 9.76714 7.40373 9.83525L5.87397 10.3452C5.66963 10.4133 5.44877 10.3029 5.38065 10.0985Z" />
<path fill-rule="evenodd" clip-rule="evenodd" d="M5.38065 11.3689C5.31254 11.1646 5.42297 10.9437 5.62731 10.8756L7.15708 10.3657C7.36141 10.2976 7.58228 10.408 7.65039 10.6123C7.7185 10.8167 7.60807 11.0375 7.40373 11.1057L5.87397 11.6156C5.66963 11.6837 5.44877 11.5733 5.38065 11.3689Z" />
<path fill-rule="evenodd" clip-rule="evenodd" d="M1.47972 2.7955C1.63203 2.6432 1.87896 2.6432 2.03126 2.7955L2.54038 3.30462C2.69269 3.45692 2.69269 3.70386 2.54038 3.85616C2.38808 4.00847 2.14114 4.00847 1.98884 3.85616L1.47972 3.34704C1.32742 3.19474 1.32742 2.94781 1.47972 2.7955Z" />
<path fill-rule="evenodd" clip-rule="evenodd" d="M3.99089 0.264748C4.18769 0.17721 4.41819 0.265785 4.50573 0.462586L4.79835 1.12044C4.88588 1.31724 4.79731 1.54774 4.60051 1.63528C4.40371 1.72282 4.17321 1.63424 4.08567 1.43744L3.79305 0.779587C3.70551 0.582787 3.79409 0.352285 3.99089 0.264748Z" />
<path fill-rule="evenodd" clip-rule="evenodd" d="M8.84825 0.264748C8.65145 0.17721 8.42095 0.265785 8.33341 0.462586L8.0408 1.12044C7.95326 1.31724 8.04183 1.54774 8.23863 1.63528C8.43543 1.72282 8.66594 1.63424 8.75347 1.43744L9.04609 0.779587C9.13363 0.582787 9.04505 0.352285 8.84825 0.264748Z" />
<path fill-rule="evenodd" clip-rule="evenodd" d="M11.5203 2.7955C11.368 2.6432 11.121 2.6432 10.9687 2.7955L10.4596 3.30462C10.3073 3.45692 10.3073 3.70386 10.4596 3.85616C10.6119 4.00847 10.8589 4.00847 11.0112 3.85616L11.5203 3.34704C11.6726 3.19474 11.6726 2.94781 11.5203 2.7955Z" />
</svg>
