<svg width="687" height="283" viewBox="0 0 687 283" fill="none" xmlns="http://www.w3.org/2000/svg">
<g clip-path="url(#clip0_408_2345)">
<path d="M672.69 239.397C676.372 244.809 676.227 250.996 674.44 257.064C674.013 259.101 673.799 261.163 673.471 263.215C672.925 266.58 671.503 269.877 671.732 273.324C672.445 281.268 671.961 289.22 671.597 297.142C671.602 299.08 669.961 300.523 668.091 300.669C663.883 301.548 659.743 302.731 655.503 303.46C650.607 304.424 646.008 306.429 641.18 307.647C632.768 309.44 623.701 311.408 615.128 311.246C607.232 310.768 599.466 308.955 591.549 308.586C582.805 307.741 574.279 310.137 565.607 310.752C557.571 311.481 549.414 310.663 541.456 312.19C531.888 314.122 523.383 319.601 513.664 320.924C501.029 321.919 488.909 323.591 476.378 324.965C466.352 325.622 456.31 325.127 446.274 325.263C429.279 326.2 412.414 329.569 395.321 328.513C372.461 326.642 349.534 326.392 326.607 326.554C306.711 326.341 286.81 329.195 267.299 332.824C245.456 337.705 223.549 343.622 200.977 343.007C190.612 342.69 180.076 342.586 169.899 340.414C161.701 338.507 154.102 334.586 145.821 332.965C133.498 331.215 121.815 326.908 109.899 323.507C103.289 321.715 97.0182 318.897 90.3568 317.246C77.8936 313.851 65.1436 311.481 52.2682 310.559C42.8414 312.819 43.0081 304.897 42.6436 297.965C43.1592 291.341 42.9557 284.591 44.2057 278.048C46.9821 262.101 48.9092 245.741 55.1696 230.674C58.18 223.226 60.5914 215.58 64.1953 208.392C64.8466 205.741 65.1328 202.7 64.5286 200.028C62.8516 196.013 61.1224 192.008 59.2109 188.101C56.1748 183.319 55.7373 177.596 54.1696 172.278C52.9609 169.622 51.6696 166.976 51.2581 164.054C50.4401 159.491 50.7734 154.809 50.9092 150.2C51.1901 145.846 50.8206 141.424 51.7373 137.127C54.4977 124.627 68.8414 102.064 80.2633 96.2835C83.2057 95.2835 86.6016 95.2471 89.5182 96.3461C91.2734 97.1013 92.8258 98.2627 94.581 99.0283C97.6592 100.731 99.654 103.773 102.299 106.023C105.977 108.653 108.675 112.403 112.117 115.179C115.539 115.809 118.498 117.784 121.867 118.569C126.836 119.211 132.029 118.7 136.961 118.299C138.508 115.94 139.195 113.206 139.894 110.508C141.128 105.955 142.675 101.476 143.69 96.8669C144.878 89.5179 144.253 81.9554 146.232 74.7151C148.076 65.195 155.284 57.0907 164.544 54.195C174.268 51.3565 184.961 55.3089 191.294 63.0283C196.716 70.2106 197.539 79.8721 198.071 88.5857C199.117 95.9913 198.071 103.544 199.456 110.898C200.388 116.252 210.748 111.596 213.987 110.508C215.039 110.069 216.211 109.825 217.164 109.195C218.43 107.596 219.211 105.637 220.211 103.867C222.961 98.4079 225.768 92.9971 229.003 87.7985C231.049 85.3773 230.56 82.3037 230.498 79.3513C230.492 74.0857 230.815 68.7309 233.571 64.0857C236.367 58.5486 239.44 53.1371 242.748 47.8923C246.847 40.4451 256.617 40.9757 264.008 40.5857C269.471 40.7153 275.133 39.559 280.482 40.8305C285.404 42.9971 289.367 47.3246 291.503 52.2205C295.586 61.5441 290.945 74.2627 300.055 81.3038C300.518 81.7153 301.768 81.5642 302.008 81.5538C305.914 81.2413 309.622 79.9027 313.399 78.9607C314.753 73.9555 314.221 68.7471 314.867 63.6527C316.956 50.8246 319.539 37.6117 328.097 27.3923C332.544 20.419 341.144 20.0337 348.523 18.0961C356.987 16.2986 366.571 17.8305 373.206 23.6319C381.867 31.7107 387.461 43.5337 387.602 55.4242C387.154 57.6638 387.727 59.5961 388.711 61.6013C390.727 67.0231 390.394 72.9861 390.534 78.6794C396.67 78.3721 400.987 72.4861 404.086 67.7471C406.519 63.7361 407.659 58.7731 411.815 56.0642C417.93 52.0642 425.357 49.3617 432.721 49.445C437.008 49.6638 440.45 52.9138 442.638 56.3565C446.971 63.6273 449.383 71.9398 450.576 80.2783C451.498 83.3617 450.242 88.3356 454.013 89.5694C456.878 91.0075 459.695 89.6371 462.357 88.4346C466.799 86.7151 471.164 84.8409 475.487 82.8461C481.549 80.1065 487.743 77.7002 493.951 75.309C499.826 73.1319 505.581 70.4079 511.19 74.8722C517.352 80.117 525.071 85.3462 527.18 93.5805C530.039 91.4912 533.508 90.559 536.904 89.7309C540.617 88.8819 544.628 87.7309 548.336 89.1846C553.597 91.669 559.388 91.7361 565.003 92.7054C580.451 97.8089 581.826 116.715 582.56 130.559C583.133 137.945 577.727 144.091 576.461 151.169C581.67 153.21 587.352 150.804 592.675 150.403C595.539 149.7 598.347 150.836 601.18 150.252C607.237 147.002 613.279 142.836 620.321 142.309C626.998 142.153 632.315 144.534 636.352 149.887C640.69 155.356 644.951 161.543 646.17 168.534C646.93 173.601 642.888 177.627 642.622 182.528C642.498 184.622 642.597 186.731 642.211 188.798C641.185 193.403 638.128 197.528 637.945 202.309C642.633 208.612 651.326 209.039 657.768 212.773C661.071 214.892 659.622 218.46 659.493 221.612C660.024 225.783 663.581 227.679 665.841 230.789C667.841 233.892 670.461 236.486 672.69 239.397V239.397ZM53.68 303.789C53.6016 303.658 53.539 303.523 53.4821 303.397C53.4196 303.273 53.3724 303.122 53.3362 302.965C52.8828 302.872 52.4821 302.617 52.2057 302.257C52.2057 302.257 52.2057 302.262 52.2005 302.262C51.862 301.809 51.6748 301.241 51.4873 300.715C51.388 300.429 51.2994 300.137 51.2269 299.846C50.9609 300.132 50.4401 300.101 50.2109 299.798C49.3362 299.195 49.6276 297.882 49.4977 296.96C49.404 298.725 49.5862 300.497 49.8206 302.246C49.8936 302.83 49.9453 303.408 50.0182 303.986C51.2269 303.768 52.4609 303.669 53.68 303.789Z" fill="#D2DFEC"/>
<path d="M421.97 88.4976C422.878 88.3668 423.841 88.1623 424.636 87.7013C425.413 84.9735 425.854 82.1375 425.949 79.3036C424.775 78.62 423.497 78.0699 422.182 77.7555C422.24 77.7672 422.299 77.7815 422.358 77.7939C419.201 79.3336 418.265 84.1311 417.249 87.2906C418.548 88.4183 420.32 88.5777 421.97 88.4977V88.4976ZM550.108 119.07C550.514 119.645 550.91 120.233 551.286 120.833C555.987 119.513 555.316 113.742 554.026 110.082C551.942 112.448 550.798 115.524 549.625 118.415C549.792 118.631 549.953 118.85 550.108 119.07ZM98.7558 128.795C99.2298 128.684 99.7158 128.627 100.202 128.627C100.285 128.627 100.368 128.628 100.45 128.632C100.436 128.601 100.422 128.572 100.408 128.541C100.111 127.951 99.8102 127.367 99.5123 126.778C99.5426 126.839 99.5728 126.9 99.6031 126.96C99.5719 126.9 99.541 126.839 99.51 126.779C99.3206 126.923 99.134 127.071 98.9504 127.223C98.7086 127.448 98.4739 127.679 98.2454 127.916C98.4192 128.207 98.5891 128.5 98.7558 128.795ZM150.561 129.227C156.589 122.303 161.383 113.237 159.579 103.822C155.809 106.189 153.709 110.123 152.367 114.248C151.035 119.044 149.164 124.261 150.561 129.227ZM553.058 139.123C556.018 137.731 558.408 135.394 560.291 132.754C558.239 133.977 556.018 134.939 553.725 135.65C553.564 136.817 553.339 137.999 553.058 139.123ZM605.995 169.196C606.82 169.055 607.634 168.813 608.403 168.479C609.255 167.001 610.142 165.549 611.103 164.122C611.511 163.52 611.929 162.927 612.359 162.345C612.335 162.268 612.312 162.19 612.288 162.113C612.193 161.878 612.095 161.645 611.992 161.413C608.742 162.49 607.051 166.162 605.992 169.195C605.993 169.195 605.995 169.195 605.995 169.196ZM109.317 171.241C108.814 172.793 108.284 174.33 107.726 175.856C113.615 172.8 118.403 168.006 124.172 164.716C130.099 160.733 137.349 159.639 143.535 156.288C140.989 154.751 138.489 153.766 135.645 152.877C129.68 150.367 125.899 144.565 123.699 138.723C122.911 148.149 117.928 156.715 111.713 163.636C110.962 166.186 110.133 168.711 109.317 171.241ZM67.8662 185.893C69.4156 182.948 71.662 178.917 75.5667 179.583C76.8912 163.628 75.8079 171.154 69.3639 158.59C66.525 152.7 64.8486 146.378 64.053 139.927C59.9674 153.995 59.8479 173.199 67.8662 185.893ZM630.838 189.246C631.189 190.37 631.52 191.552 631.597 192.737C632.168 190.384 632.467 187.949 632.402 185.527C631.806 186.442 631.161 187.328 630.497 188.19C630.618 188.545 630.731 188.9 630.838 189.246V189.246ZM569.324 194.149C569.787 194.096 570.248 194.029 570.707 193.949C570.919 193.9 571.13 193.85 571.339 193.798C572.297 189.537 575.845 185.934 579.942 184.514C577.308 179.766 576.142 174.206 576.608 168.799C576.713 165.373 577.995 162.111 578.02 158.69C570.048 167.347 558.126 175.908 545.857 171.688C548.192 179.539 553.978 185.574 560.728 189.933C563.51 191.378 566.103 193.93 569.324 194.149ZM63.6754 239.127C65.8479 232.567 68.0836 226.021 70.0188 219.389C69.749 220.113 69.4872 220.839 69.2327 221.567C69.0116 222.208 68.7903 222.847 68.5667 223.484C68.5868 223.428 68.6074 223.371 68.6295 223.315C68.426 223.887 68.2284 224.466 68.0306 225.039C68.0771 224.903 68.1243 224.767 68.1708 224.632C66.5927 229.436 65.0898 234.268 63.6754 239.127ZM53.317 305.486C51.5979 305.486 49.8427 304.272 49.4524 302.544C49.4104 302.359 49.3766 302.172 49.3479 301.984C44.5028 299.678 44.6826 288.878 44.0042 284.059C43.4615 277.537 43.3906 270.934 44.0204 264.418C44.7815 255.606 47.4172 247.153 49.2334 238.544C51.5478 226.816 56.6435 215.948 59.9488 204.489C56.4163 201.91 54.0986 198.027 52.3655 194.091C46.3479 186.839 42.7431 177.766 42.1031 168.393C41.4098 156.94 42.3619 145.165 46.6871 134.445C49.6376 126.79 56.2695 121.473 63.6923 118.494C66.4746 98.5295 82.4208 86.2917 102.364 91.2619C106.907 92.5737 110.825 95.6785 113.335 99.6591C116.139 102.276 118.511 105.367 119.98 108.933C120.641 103.156 122.223 97.5041 125.035 92.3973C130.802 82.7345 140.828 71.2333 153.312 73.898C156.972 74.8199 160.354 76.6227 163.221 79.0764C166.34 80.2203 169.139 82.0816 171.223 84.6735C172.737 86.4593 173.691 88.7489 174.379 90.9657C176.126 92.7483 177.523 94.9045 178.822 96.9865C191.233 112.943 179.821 133.046 170.348 147.445C173.254 149.763 177.194 149.903 180.353 151.777C182.814 153.056 184.944 154.874 187.372 156.204C193.038 153.673 198.075 149.678 203.083 146.038C206.535 142.811 209.241 138.911 212.171 135.226C215.776 130.54 221.984 129.778 225.754 125.649C217.983 123.962 212.564 117.108 209.905 109.957C205.466 98.452 206.694 85.5979 208.551 73.6785C210.92 64.3055 213.112 54.2235 220.582 47.4448C229.26 38.9403 245.074 38.5216 253.52 47.5489C256.003 50.1296 257.205 53.6173 257.742 57.1043C260.027 61.8217 260.915 67.0731 260.725 72.2996C263.73 85.0327 260.984 98.9181 252.7 109.118C261.439 109.013 262.127 118.579 261.057 125.201C261.211 128.904 262.313 132.561 263.462 136.067C268.819 134.695 273.975 132.537 279.463 131.59C285.155 130.455 290.915 129.697 296.562 128.333C298.85 124.144 299.823 119.338 302.991 115.606C290.781 112.29 285.199 93.8016 286.854 82.5015C288.012 75.5757 287.138 68.0789 290.838 61.7515C300.532 45.3537 317.142 55.4924 326.603 66.3504C332.361 72.1519 333.857 80.8816 333.584 88.7587C336.387 89.7704 338.24 92.4391 338.343 95.5015C338.343 98.5965 336.148 101.037 334.874 103.705C332.879 107.222 330.459 111.695 325.751 111.317C325.578 111.516 325.403 111.716 325.228 111.913C324.037 113.257 322.781 114.543 321.534 115.837C321.735 121.905 324.477 127.475 326.946 132.906C328.549 135.972 330.166 139.134 332.428 141.742C338.389 149.722 348.67 151.4 358.057 151.187C365.155 150.345 371.838 147.429 378.593 145.237C387.13 142.412 395.992 140.571 404.874 139.468C406.175 134.361 408.644 129.645 411.486 125.239C402.414 123.379 396.812 114.74 394.864 106.216C394.403 104.375 394.117 102.509 393.903 100.634C392.49 98.6167 391.539 96.4175 390.807 94.0796C388.414 85.3361 391.929 76.2033 396.532 68.7984C398.726 62.6187 401.354 56.0751 407.051 52.2991C415.968 45.9319 428.481 48.4377 436.145 55.6428C441.133 60.1227 444.822 66.0132 446.054 72.5263C448.785 80.0464 448.7 88.6037 445.008 95.7867C446.994 105.199 439.164 114.189 432.256 119.662C433.18 124.212 434.427 128.69 436.443 132.886C437.457 134.718 439.655 135.906 441.683 136.214C448.04 136.048 454.335 133.944 460.15 131.476C463.187 129.907 465.726 127.589 468.52 125.647C468.175 124.998 467.835 124.346 467.508 123.689C448.914 121.772 444.466 100.296 450.226 85.3113C453.518 72.4213 464.88 58.42 479.541 61.4604C481.961 62.0776 484.141 63.1779 486.071 64.6505C487.702 64.9787 489.292 65.5313 490.796 66.3093C495.833 68.6752 498.442 73.8516 499.496 79.0899C501.144 81.2032 502.436 83.6036 503.281 86.168C505.721 93.7988 504.303 102.098 503.02 109.826C500.22 117.933 493.486 124.18 487.09 129.617C489.044 134.184 491.289 138.606 493.923 142.823C494.468 143.643 495.17 144.334 496.065 144.759C501.155 147.043 506.852 147.756 512.391 147.445C517.064 147.139 521.654 145.595 526.346 145.867C526.384 139.917 523.771 134.461 523.254 128.59C522.791 124.242 523.02 119.825 523.598 115.492C524.512 109.267 526.438 102.85 530.942 98.2781C533.956 95.17 537.989 93.3829 541.197 90.4917C555.22 80.6331 571.54 83.65 580.749 98.2209C587.385 108.195 591.903 118.332 590.217 130.619C597.396 123.212 609.512 118.349 618.518 125.494C629.807 127.481 634.363 139.737 636.684 149.628C649.272 152.573 659.785 163.451 663 175.887C663.964 180.471 663.858 185.162 664.358 189.799C664.436 195.239 662.181 200.298 660.794 205.467C663.952 215.005 668.832 223.802 672.708 233.039C678.632 250.729 684.287 269.044 683.422 287.912C690.4 293.174 684.419 302.821 676.803 302.71C669.924 304.378 662.858 305.668 655.749 304.751C653.739 304.565 651.895 304.231 650.228 303.007C645.425 299.591 646.866 291.8 652.312 289.923C656.29 288.356 660.588 287.945 664.784 287.265C663.618 276.789 663.419 266.004 659.652 256.044C655.465 256.123 652.717 252.5 651.848 248.73C649.383 241.467 647.204 235.162 644.438 228.225C642.016 232.36 638.367 235.739 634.577 238.017C629.241 241.571 623.076 237.843 618.885 234.221C608.423 225.604 598.964 213.805 599.416 199.561C598.633 199.367 597.86 199.143 597.103 198.908C596.703 198.783 596.307 198.649 595.916 198.505C587.579 204.123 573.849 211.089 563.702 208.144C553.801 204.215 544.625 197.485 538.161 188.976C532.646 181.397 530.221 172.11 528.591 163.021C526.563 163.109 524.567 162.688 522.869 161.377C522.697 161.244 522.533 161.106 522.377 160.963C509.978 163.25 495.509 163.129 485.145 155.06C480.478 150.747 477.988 144.679 475.149 139.113C469.09 144.23 461.726 147.334 454.062 149.157C440.9 153.345 427.363 150.489 421.901 136.643C418.571 141.708 418.97 149.339 413.312 152.716C411.467 153.767 409.524 154.033 407.425 154.043C399.056 154.984 391.153 156.708 383.218 159.262C373.323 162.324 363.455 167.006 352.849 165.861C330.495 165.118 318.722 152.795 310.786 132.978C309.39 135.545 308.176 138.517 305.838 140.383C304.52 141.398 302.91 141.893 301.327 142.31C294.816 144.005 288.132 144.859 281.525 146.054C276.434 147.08 271.61 149.086 266.551 150.206C251.822 152.574 248.995 140.244 246.85 128.691C245.211 129.25 243.536 129.617 241.781 129.771C236.792 135.873 230.749 140.873 223.726 144.433C219.891 149.359 216.18 154.456 211.312 158.43C206.259 161.979 201.209 165.591 195.817 168.637C186.688 173.634 180.988 170.012 173.32 164.766C169.418 163.268 165.254 162.302 161.942 159.578C156.906 164.435 151.652 169.587 144.905 171.919C141.13 173.235 137.319 174.447 133.738 176.25C123.197 181.658 113.972 194.38 100.781 190.182C96.303 197.162 90.6614 203.998 82.7004 207.029C80.6848 214.202 79.0328 221.528 76.0514 228.378C73.7682 233.641 71.4534 238.907 69.8271 244.414C65.7144 258.13 62.4032 272.067 59.5478 286.083C59.6722 287.185 59.8346 288.272 60.0618 289.362C60.3339 290.606 59.6724 291.89 58.3818 292.182C58.0094 294.449 57.51 296.712 57.5146 299.018C57.7718 301.842 56.7688 305.523 53.317 305.487V305.486Z" fill="#D2DFEC"/>
<path d="M24.1355 309.181C23.3861 308.992 22.6759 308.738 21.9819 308.442C11.1885 309.992 7.22761 297.032 4.91027 288.81C-1.66493 274.035 -0.132394 257.207 2.27614 241.638C4.47174 229.965 6.89921 218.084 12.3315 207.421C9.19961 202.705 7.76081 197.121 7.26734 191.533C6.27841 187.933 5.83241 184.176 5.79694 180.446C5.75174 175.664 6.49907 170.783 8.17654 166.276C10.1433 155.874 16.0733 146.306 26.1251 143.023C36.3285 140.248 50.3852 142.892 56.3624 152.304C60.6479 154.873 63.7592 159.347 65.0519 164.174C67.3256 168.289 68.6921 172.924 68.4532 177.612C68.3383 179.906 67.8168 182.202 67.1397 184.426C67.1856 186.179 67.0557 187.934 66.7637 189.665C68.032 192.968 68.3145 196.516 68.1635 200.027C73.2127 208.327 71.7452 218.578 70.3543 227.711C69.4939 232.579 68.1583 237.448 66.0668 241.95C66.0079 242.823 65.9392 243.696 65.8633 244.569C70.5268 250.106 70.3825 257.997 71.9525 264.764C73.7179 270.876 68.5688 276.799 62.3536 274.088C53.1352 287.861 44.754 312.818 24.1355 309.181V309.181Z" fill="#D2DFEC"/>
<path d="M313.919 24.6712C315.179 25.5574 314.106 27.7083 312.637 27.224C311.538 26.8959 310.434 26.6563 309.346 26.4063C310.215 27.2136 311.028 28.0678 311.752 29.015C313.377 30.9212 311.268 34.0827 308.882 33.2858C307.856 32.9368 306.934 32.416 306.106 31.765C305.658 32.0678 305.194 32.3906 304.742 32.4524C303.434 32.8639 302.903 33.8906 302.481 35.1087C300.601 41.1302 301.455 47.5572 300.664 53.6712C300.591 54.7546 300.293 55.7858 299.924 56.7916C309.325 64.302 304.184 74.6139 293.424 74.0879C290.674 77.9792 287.127 81.4583 283.481 84.3126C281.601 85.6355 279.95 87.6407 277.674 88.2026C277.705 88.1974 277.731 88.1922 277.762 88.187C276.07 88.6922 274.393 88.7651 272.664 88.7026C269.252 88.3022 265.96 86.8907 263.252 84.7547C263.273 85.9526 263.262 87.1616 263.346 88.338C264.684 89.2755 266.273 89.7294 267.419 90.8588C268.492 92.7495 268.611 94.7136 269.559 96.6088C272.382 97.8855 274.33 100.484 276.08 102.896C280.174 108.359 281.502 115.083 283.22 121.515C285.143 127.786 287.148 134.005 289.898 139.947C290.747 141.281 290.08 142.495 289.049 143.636C290.778 146.432 292.346 149.354 293.616 152.406C294.856 154.369 296.21 156.297 297.226 158.38C297.929 160.281 298.715 161.927 299.45 163.786C299.924 164.734 300.632 165.604 300.882 166.651C301.205 168.781 301.32 171.245 300.2 173.171C296.122 181.166 292.882 189.619 289.622 197.984C288.669 199.77 288.007 203.219 286.788 205.765C287.596 208.964 288.356 212.171 289.111 215.385C290.861 224.161 290.164 233.12 289.694 241.995C288.882 246.281 287.97 250.547 287.497 254.896C285.694 263.421 286.085 272.203 284.481 280.74C284.32 281.182 284.164 281.63 284.007 282.078C283.898 282.979 283.809 283.875 283.757 284.775C283.575 289.969 283.57 295.239 282.08 300.265C282.075 300.265 282.07 300.26 282.07 300.254C281.153 303.375 277.585 304.385 274.653 304.234C273.944 304.151 273.242 303.911 272.585 303.641C272.434 303.573 272.283 303.504 272.132 303.437C268.33 304.52 264.21 303.797 260.304 303.734C257.648 303.926 254.992 303.896 252.325 303.828C247.335 303.812 242.335 304.197 237.372 303.504C235.205 303.141 232.694 302.974 231.012 301.421C229.82 300.229 229.575 298.557 229.111 297.015C227.809 293.656 226.934 290.187 226.366 286.63C224.898 281.463 223.158 276.416 221.194 271.515C220.106 268.947 219.611 266.166 218.71 263.525C217.455 259.151 215.689 254.864 215.919 250.234C215.986 246.76 215.57 243.463 215.533 240.12C215.591 237.885 215.986 235.687 216.439 233.499C216.622 231.275 216.914 229.068 217.325 226.88C218.497 222.13 220.497 217.661 222.153 213.093C220.58 210.197 218.783 207.265 217.492 204.458C215.137 201.025 214.096 196.896 211.96 193.396C210.299 191.823 208.58 189.989 208.21 187.64C207.96 185.78 208.164 183.926 208.565 182.098C208.439 180.749 208.476 179.37 208.606 177.99C208.715 173.318 209.257 168.646 210.346 164.161C210.898 161.568 211.393 158.911 212.122 156.343C212.309 154.984 212.611 153.635 212.965 152.302C209.002 151.161 211.575 145.525 212.366 142.109C213.335 138.734 215.309 135.745 216.132 132.348C218.382 124.53 219.939 116.328 223.606 109.025C224.481 107.656 225.58 106.458 226.841 105.437C228.627 103.749 230.257 101.729 232.627 100.853C235.028 97.4263 237.424 93.9947 239.825 90.5675C241.132 88.6919 242.45 86.8227 243.752 84.9419C242.2 83.2023 239.773 82.8175 237.997 81.3482C235.122 79.6867 232.877 77.2343 231.622 74.1404C229.309 67.1352 230.778 58.52 235.497 52.8279C231.997 41.848 234.21 29.9262 239.518 19.88C240.611 17.7915 241.585 15.6867 243.262 13.9842C246.309 10.0095 249.549 5.84804 254.46 4.15084C259.47 1.88524 265.346 -0.474762 270.861 1.1919C270.934 1.22377 271.007 1.25964 271.08 1.2967C271.71 0.801904 272.481 0.436704 273.164 0.0779043C274.726 -0.651962 276.444 -0.359562 278.059 0.00950438C281.356 0.848038 284.153 1.55177 286.955 3.3331C292.893 8.20284 300.075 13.421 303.194 20.656C306.783 20.9946 312.643 23.6814 313.919 24.671V24.6712ZM286.455 166.77C285.611 164.838 284.648 162.974 283.71 161.098C281.486 169.02 282.231 177.338 283.372 185.421C284.465 179.224 285.414 173.01 286.455 166.77ZM224.601 188.578C224.658 183.573 224.476 178.563 224.018 173.578C223.439 176.197 222.788 178.807 222.028 181.391C221.83 182.197 221.591 182.958 221.346 183.703C222.518 185.265 223.591 186.901 224.601 188.578Z" fill="#B9C9DA"/>
<path d="M463.856 203.947C471.789 210.89 470.507 222.609 467.674 231.667C465.715 234.589 462.215 236.583 460.778 239.885C460.091 241.443 459.241 242.922 458.419 244.401C458.789 251.468 458.539 258.552 458.507 265.625C458.148 268.052 459.007 272.818 457.679 275.312C457.731 283.422 458.231 291.64 457.346 299.693C457.023 300.828 456.632 302.109 455.903 303.046C454.028 305.051 451.319 305.755 448.892 306.849C447.289 307.385 445.825 308.14 444.335 308.922C441.528 309.973 438.356 310.182 435.387 310.213C423.361 308.307 411.747 307.162 400.299 303.255C397.788 302.985 394.346 302.963 393.929 299.755C393.679 292.339 392.299 285.369 391.861 278.016C391.002 265.802 390.309 253.463 387.971 241.443C386.273 229.703 386.763 217.573 388.513 205.953C389.273 203.089 389.419 200.119 389.991 197.223C391.45 193.859 391.752 190.286 391.58 186.64C391.58 179.874 391.408 173.119 390.882 166.39C390.908 164.151 391.2 161.922 391.341 159.984C391.382 159.479 391.382 158.427 391.398 157.109C390.945 157.197 390.44 157.182 389.898 157.036C386.46 156.755 383.263 155.525 380.08 154.301C379.304 154.073 378.637 153.791 378.127 153.13C376.934 151.906 377.101 150.156 377.127 148.578C377.231 144.49 378.856 140.016 379.45 136.089C380.746 129.401 381.695 122.594 383.513 116.041C386.023 110.849 388.976 105.49 393.965 102.359C395.325 101.313 396.768 100.417 398.257 99.463C398.757 99.1771 399.289 99.0991 399.814 98.9167C400.669 98.39 401.445 98.4472 402.226 97.9219C402.768 95.2806 404.543 91.6511 407.747 92.1615C408.231 92.3334 408.736 92.3542 409.236 92.39C409.996 89.963 411.158 87.7182 411.059 85.0782C409.132 83.3744 406.747 82.2026 404.971 80.3178C403.497 78.5307 402.268 77.1088 400.945 75.2911C399.872 73.823 399.2 72.1192 398.434 70.4844C397.585 68.9323 396.663 67.4474 395.898 65.8692C395.591 65.9011 395.278 65.8952 394.955 65.8439C387.215 65.4898 381.892 54.9324 386.929 48.7964C387.518 47.8798 388.351 46.9527 389.319 46.2964C385.184 41.3179 383.835 34.6826 384.018 28.2808C384.367 23.8388 386.299 19.6774 388.137 15.6774C389.299 13.2288 391.059 10.7659 393.539 9.55176C393.101 8.81216 392.715 7.87989 393.887 7.58882C394.377 7.50549 394.778 7.82842 395.043 8.20269C395.195 8.42216 395.341 8.64536 395.486 8.86936C395.669 8.83349 395.851 8.81789 396.033 8.81789C396.018 8.69749 396.002 8.57829 395.981 8.45789C395.476 7.48456 395.731 5.71829 397.195 6.17202C397.892 6.42202 398.054 7.20256 398.142 7.69216C398.304 8.43762 398.491 9.17723 398.731 9.90629C398.793 9.96296 398.851 10.0255 398.898 10.0938C399.304 9.51043 399.793 8.97856 400.273 8.45242C402.715 5.98429 405.434 3.70762 408.814 2.65096C411.122 1.08842 413.747 0.629491 416.497 0.858691C421.658 1.24482 426.465 3.27536 431.319 4.92189C433.445 5.65629 435.127 7.27082 436.559 8.95243C438.741 10.9472 440.398 13.3386 441.497 16.099C444.377 24.7448 446.882 34.099 445.752 43.2656C445.591 43.823 445.398 44.3334 445.174 44.8178C446.013 45.1823 446.783 45.7344 447.408 46.4271C449.856 49.5052 450.46 53.713 449.319 57.4271C448.465 61.5938 445.283 65.4786 440.684 64.6615C439.945 64.6667 439.117 64.5834 438.528 64.192C438.398 64.791 438.304 65.401 438.195 66.0052C437.341 71.3178 435.497 76.2234 433.148 80.9948C433.127 81.0307 433.111 81.0678 433.091 81.1042C432.08 82.9628 431.158 85.041 429.835 86.6347C430.069 88.0676 430.642 89.427 430.809 90.8795C434.263 91.151 437.273 93.2024 440.414 94.4895C441.96 95.5884 443.319 96.942 444.747 98.1874C446.07 98.5988 447.185 99.3956 448.143 100.379C448.856 100.707 449.481 101.197 449.919 101.859C450.971 102.53 451.658 102.879 452.44 103.734C454.117 105.755 454.877 108.056 456.169 110.255C457.846 113.801 458.58 117.745 459.841 121.411C460.382 125.323 461.715 129.025 462.539 132.879C462.825 136.401 468.825 146.568 465.309 148.546C464.513 148.995 463.71 149.427 462.903 149.849C463.549 152.677 463.94 155.568 464.299 158.437C464.695 161.599 465.575 164.859 465.643 168.016C465.96 175.255 464.471 182.546 464.039 189.786C463.862 194.5 463.731 199.229 463.856 203.947L463.856 203.947ZM438.705 48.6043C438.69 48.5359 438.684 48.4735 438.679 48.4064C438.679 48.4846 438.69 48.536 438.705 48.6043Z" fill="#B9C9DA"/>
<path d="M216.915 160.045C217.03 162.53 217.441 165.03 217.285 167.509C214.754 175.581 213.019 183.467 211.744 191.764C211.17 197.134 209.827 202.373 209.613 207.785C209.384 209.67 209.072 211.54 208.91 213.431C209.082 217.086 209.42 220.732 209.514 224.389C209.535 224.847 209.629 225.306 209.728 225.764C210.03 226.394 210.238 227.097 210.426 227.732C213.04 234.056 212.941 240.894 214.4 247.493C216.858 258.977 216.983 270.801 216.473 282.493C216.587 286.258 216.264 290.086 215.4 293.758C214.994 295.29 214.79 297.139 213.436 298.144C211.858 302.431 206.905 303.28 202.837 303.186C198.728 303.696 194.764 305.129 190.691 305.149C185.983 305.222 181.129 305.79 176.494 304.732C170.822 302.581 164.952 304.686 159.097 304.149C154.061 305.207 149.572 305.993 144.504 305.462C143.488 305.394 142.603 305.347 141.764 305.232C140.592 306.17 138.785 306.315 137.613 304.79C135.191 301.894 135.889 297.925 135.196 294.452C134.514 289.358 132.873 284.425 133.223 279.232C133.212 269.409 133.046 259.565 134.218 249.795V249.79C134.296 245.727 134.426 241.665 134.665 237.608C134.556 236.836 134.473 236.06 134.426 235.29C134.056 235.191 133.67 235.008 133.264 234.753C132.327 234.03 131.774 232.649 132.17 231.482C132.41 230.925 132.556 230.321 132.316 229.743C131.379 227.103 130.379 224.498 129.566 221.816C127.962 216.154 126.145 210.519 123.837 205.149C122.597 201.472 122.014 197.389 120.686 193.795C120.316 192.722 119.968 191.644 119.827 190.514C119.41 185.909 121.676 181.571 121.853 177.003C122.129 172.884 123.368 168.952 124.186 164.92C124.285 162.348 124.082 159.654 124.873 157.181C126.04 154.535 129.087 152.452 130.66 150.207C133.889 146.181 137.342 142.707 141.415 139.732C145.316 135.712 149.191 131.409 153.296 127.654C150.306 123.899 154.754 121.972 158.342 121.399C158.108 117.446 158.009 113.467 157.67 109.514C155.15 107.707 153.046 105.482 151.072 103.129H151.066C149.994 103.384 148.973 103.457 148.223 103.321C146.952 103.055 145.723 103.108 144.446 102.863C141.405 102.138 139.322 99.014 138.973 96.0296C138.879 95.0029 139.108 94.0088 139.499 93.0654C139.66 92.1592 139.842 91.2068 140.202 90.3362C139.468 89.5029 138.774 88.6129 138.066 87.79C134.962 86.7268 133.373 83.4038 131.879 80.717C130.259 77.4142 130.53 73.659 130.16 70.092C124.597 71.4924 118.03 69.5861 115.046 64.4565C113.337 62.3985 112.097 59.9513 111.994 57.2117C111.827 55.258 112.123 53.2528 112.749 51.3985C112.816 47.1693 114.228 42.987 117.024 39.7898C120.879 34.8152 127.712 32.9461 133.577 35.1909C136.702 35.1076 139.801 35.8002 142.572 37.2424C148.139 34.4194 153.577 31.0398 159.79 29.868C164.733 29.3002 169.556 27.4253 174.535 27.7214C179.379 28.836 184.509 28.8985 189.17 30.7422C192.983 32.7689 197.181 35.2585 199.285 39.1589C200.681 42.4669 201.446 46.1752 200.665 49.6804C199.702 53.446 198.769 57.347 196.66 60.6641C196.17 61.3678 195.67 62.0652 195.155 62.7526C195.322 63.9512 195.488 65.1485 195.618 66.3574C195.754 67.6074 195.79 68.8626 195.79 70.123C195.796 71.3046 195.842 72.4765 195.946 73.6536C196.04 74.4616 196.139 75.2584 196.202 76.0702C196.28 77.0084 196.259 77.9406 196.212 78.8782C196.17 79.7265 196.04 80.5598 195.936 81.4036C195.91 81.623 195.889 81.8469 195.863 82.065C196.311 81.888 196.764 81.7116 197.223 81.5449C198.123 81.2213 199.046 80.9252 199.999 80.7689C200.582 80.6804 201.186 80.6485 201.774 80.7266C202.353 80.81 202.879 80.987 203.405 81.2169C203.988 81.5028 204.483 81.8576 204.915 82.368C205.452 83.0028 205.769 83.9038 205.744 84.7318C205.712 85.7214 205.494 86.6126 205.17 87.3522C205.139 87.4193 205.113 87.487 205.077 87.5501L205.04 87.6282C204.666 88.4141 204.254 89.1908 203.801 89.9408C203.196 90.9564 202.446 91.8418 201.655 92.7012C200.744 93.6856 199.67 94.4922 198.597 95.2845C198.051 95.6908 197.478 96.1074 196.853 96.4037C196.249 96.696 195.618 96.9037 195.113 97.0345C194.853 97.097 194.592 97.1537 194.332 97.2168C194.191 97.6856 194.061 98.1588 193.91 98.6283C193.566 99.7265 193.165 100.795 192.728 101.847C192.191 103.128 191.676 104.419 191.087 105.675C190.582 106.753 189.968 107.79 189.332 108.8C188.645 109.904 187.884 110.919 187.046 111.909C186.827 112.18 186.618 112.451 186.363 112.696C185.759 113.269 185.056 113.613 184.223 113.686C183.488 113.747 182.686 113.602 181.973 113.451C181.072 113.269 180.202 113.003 179.337 112.721C179.145 112.785 178.952 112.842 178.754 112.888C178.316 112.982 177.884 113.003 177.452 112.941C177.524 113.295 177.566 113.654 177.603 114.003C177.769 115.57 177.858 117.154 177.822 118.592C177.806 119.128 177.822 119.727 177.785 120.32C180.019 119.8 182.431 119.3 184.384 120.649C185.853 121.721 186.145 123.919 184.983 125.342C184.983 125.345 184.981 125.349 184.978 125.352C185.066 125.409 185.15 125.471 185.218 125.535C191.04 125.503 197.072 127.451 201.186 131.712C203.28 133.982 204.618 136.831 206.519 139.274C208.879 142.436 210.811 145.941 212.754 149.383C213.561 151.602 214.353 153.836 215.332 155.992C215.728 157.378 216.566 158.675 216.915 160.045V160.045ZM188.024 98.0088C188.196 97.4566 188.347 96.904 188.499 96.3473C188.233 97.1025 187.941 97.8362 187.608 98.5706C187.665 98.5505 187.733 98.5244 187.801 98.5029C187.827 98.5029 187.847 98.4925 187.879 98.4873C187.926 98.331 187.978 98.1696 188.024 98.0088ZM184.535 38.6233C184.483 38.5862 184.436 38.5504 184.389 38.5192C184.379 38.5296 184.368 38.54 184.358 38.5452C184.415 38.5653 184.478 38.5973 184.535 38.6233ZM181.332 44.3004C181.546 44.2744 181.759 44.2529 181.973 44.232C181.665 44.1285 181.358 44.0242 181.04 43.9194C181.145 44.045 181.244 44.1694 181.332 44.3002L181.332 44.3004Z" fill="#A8B8C9"/>
<path d="M542.126 134.625C542.131 134.618 542.135 134.611 542.14 134.604C542.133 134.615 542.127 134.625 542.12 134.634C542.122 134.631 542.123 134.627 542.126 134.625V134.625Z" fill="#D2DFEC"/>
<path d="M483.105 97.3799C483.089 97.4677 483.079 97.5511 483.063 97.6396C483.079 97.5511 483.089 97.4677 483.105 97.3799Z" fill="#D2DFEC"/>
<path d="M483.242 96.4341C483.238 96.4607 483.235 96.4881 483.232 96.5154C483.23 96.5213 483.229 96.5271 483.227 96.5323C483.232 96.4998 483.237 96.4666 483.242 96.4341Z" fill="#D2DFEC"/>
<path d="M541.262 95.9033C541.335 95.9971 541.408 96.0908 541.476 96.1793C541.476 96.0075 541.47 95.8408 541.465 95.6689C541.397 95.7523 541.329 95.8304 541.262 95.9033ZM517.605 254.564C517.59 254.783 517.569 255.007 517.554 255.226C517.627 255.179 517.694 255.137 517.767 255.096V254.533C517.715 254.548 517.663 254.559 517.605 254.564V254.564ZM497.569 319.945C492.127 319.278 486.194 318.435 482.215 314.215C479.033 313.492 475.882 313.642 472.726 312.975C468.105 312.21 468.777 307.199 471.517 304.637C472.079 300.887 471.788 297.116 471.465 293.366C471.444 292.612 471.418 291.856 471.382 291.106C471.074 292.669 470.845 294.263 469.533 295.325C467.491 296.632 464.137 296.981 463.048 294.268C462.543 292.69 462.382 290.664 463.767 289.465C465.027 285.257 465.366 280.975 465.554 276.606C464.147 272.699 461.627 269.346 460.21 265.429C459.345 263.132 458.116 261.043 456.95 258.903C456.788 258.569 456.653 258.215 456.59 257.856C455.809 256.116 455.569 254.179 455.678 252.247C455.168 249.851 454.861 247.424 454.481 244.986C453.527 243.304 453.731 241.164 453.611 239.283C453.595 235.497 453.377 231.715 453.543 227.929C453.757 223.403 454.116 219.445 454.444 215.043C454.777 212.647 454.798 210.033 455.418 207.659C455.788 202.763 456.527 197.871 458.085 193.215C458.996 188.747 460.116 183.763 463.272 180.403C462.491 179.169 461.736 177.919 460.981 176.674C460.35 175.586 461.371 174.632 462.408 174.414C462.882 173.549 463.877 173.325 464.684 172.877C468.799 170.107 472.476 166.591 476.2 163.371C479.272 160.455 483.147 158.538 486.387 155.871C486.772 155.695 487.189 155.424 487.621 155.091C487.574 155.059 487.533 155.028 487.491 155.002C488.251 154.476 488.95 153.851 489.574 153.164C489.887 152.935 490.194 152.705 490.507 152.476C491.45 151.788 492.465 151.137 493.085 150.122C493.845 148.882 493.251 147.174 492.022 146.502C491.355 146.137 490.632 146.101 489.981 146.309C489.715 146.164 489.428 146.038 489.147 145.909C489.121 145.898 489.095 145.882 489.074 145.867C488.653 145.601 488.236 145.367 487.788 145.148H487.793C487.751 145.127 487.71 145.112 487.668 145.091C487.71 145.112 487.746 145.127 487.788 145.148C487.397 144.976 486.996 144.825 486.611 144.653C486.554 144.622 486.496 144.591 486.444 144.559C486.017 144.268 485.605 143.955 485.147 143.695C484.627 143.403 484.074 143.159 483.559 142.851C483.465 142.784 483.371 142.71 483.283 142.637C482.678 142.081 482.132 141.44 481.585 140.831C480.903 140.034 480.257 139.195 479.673 138.331C479.736 138.424 479.799 138.518 479.861 138.617C479.251 137.7 478.678 136.758 478.095 135.825C478.158 135.919 478.215 136.018 478.278 136.112C478.028 135.71 477.778 135.309 477.533 134.909C477.319 134.549 477.127 134.185 476.955 133.809C476.616 132.96 476.345 132.091 476.09 131.205C476.121 131.32 476.153 131.43 476.184 131.538C475.647 129.669 475.127 127.788 474.605 125.914C474.085 124.049 473.564 122.179 473.251 120.263C473.064 118.607 472.991 116.945 472.923 115.284C473.043 114.476 473.173 113.669 473.309 112.867C474.741 109.768 476.788 106.814 479.403 104.617C479.476 104.554 479.554 104.492 479.632 104.429C479.689 104.013 479.736 103.612 479.741 103.258C479.814 98.3976 480.684 93.7153 481.923 89.0591C481.97 88.9191 482.017 88.7837 482.064 88.6424C482.033 88.5805 481.996 88.5232 481.96 88.4601C482.299 87.6424 482.647 86.8305 483.012 86.0181C484.507 81.9973 486.22 78.0755 488.246 74.2883C489.226 72.5591 489.976 69.1535 491.788 68.3091C488.976 65.1639 486.059 62.1119 482.397 60.1587C481.772 60.0284 481.418 59.2257 481.767 58.6847C483.564 56.6899 489.319 61.9399 491.038 63.1267C491.991 63.9189 492.939 64.7256 493.861 65.5537C493.335 64.2367 492.767 62.9293 492.142 61.6475C490.658 58.6845 489.173 55.7679 487.522 52.8975C487.178 52.2985 486.528 51.4808 486.783 50.7419C487.173 49.5804 488.522 49.82 489.178 50.5485C493.481 55.0284 497.413 60.1117 500.293 65.6013C500.877 65.2048 501.637 64.992 502.47 64.9035C501.277 60.1899 499.772 55.5487 498.2 50.9549C497.976 50.0383 497.298 49.3768 497.153 48.44C496.981 47.164 497.809 45.7577 499.111 45.4653C503.194 45.2837 506.621 48.7576 509.585 51.1535C513.147 54.3461 516.522 57.7472 519.809 61.2153C519.491 58.4549 519.121 55.7004 518.882 52.9348C518.7 52.1373 518.955 51.164 519.799 50.8873C519.877 50.6536 519.908 50.4088 519.95 50.1744C520.121 48.7103 522.408 48.8515 522.382 50.3411V50.5129C522.658 50.6848 522.908 50.9036 523.095 51.1321C527.517 54.3717 530.335 59.1849 532.84 63.9655C534.595 67.3925 536.127 70.6953 537.355 74.2525C537.491 73.6796 537.627 73.0963 537.835 72.5592C537.923 70.1269 538.069 67.7207 538.403 65.3092C538.46 65.0025 538.59 64.7207 538.772 64.4869C538.574 63.2733 538.007 61.8672 538.934 60.8567C539.605 60.1848 540.705 60.2004 541.377 60.8567C541.549 61.0592 541.684 61.2837 541.788 61.5233C542.397 61.1536 543.377 61.5963 543.257 62.4653C544.804 64.8409 546.105 67.3461 547.22 69.94C547.22 69.94 547.226 69.9452 547.226 69.9504C547.579 70.4549 547.783 71.0487 547.928 71.664C549.522 75.7259 550.678 79.9811 551.564 84.2629V84.2681C551.772 84.6425 551.913 85.054 552.09 85.44L552.095 85.4452C554.673 86.8716 557.304 88.2369 560.017 89.4088C561.522 89.9973 563.392 90.6425 563.85 92.3717H563.855C564.246 92.4401 564.637 92.4921 565.012 92.6321C565.585 92.8463 565.981 93.362 566.038 93.9244C566.6 94.5488 566.757 95.4707 566.283 96.2259C565.705 97.1536 564.512 97.19 563.517 97.2207C563.423 97.6425 563.163 98.0287 562.778 98.2369C562.496 98.3925 562.2 98.4707 561.892 98.4921C562.512 99.2473 563.22 100.18 562.694 101.164C562.824 101.341 562.923 101.523 562.986 101.71C564.517 102.846 565.799 104.137 564.757 105.731C564.069 106.622 562.877 106.695 561.996 106.091C561.965 106.07 561.939 106.044 561.908 106.023C561.882 106.68 561.663 107.404 561.194 108.164C560.434 109.404 558.903 109.841 557.944 110.809C557.928 111.898 557.517 112.831 556.928 113.685C556.658 113.877 556.408 114.096 556.173 114.336C555.34 115.231 554.59 116.215 553.882 117.21C553.038 118.404 552.194 119.607 551.423 120.841C550.715 121.981 550.007 123.127 549.309 124.273C549.054 124.596 548.804 124.919 548.554 125.242C550.814 126.424 552.423 128.529 552.439 131.57C557.627 139.382 543.158 149.008 536.392 145.715C536.331 145.691 536.269 145.666 536.209 145.642C535.983 145.008 535.535 144.502 534.96 144.185C534.856 143.57 534.569 143.008 534.069 142.581C533.543 142.132 532.819 141.877 532.127 141.95C531.122 142.049 530.481 142.612 529.835 143.325C529.809 143.362 529.778 143.392 529.751 143.424C529.168 143.653 528.684 144.081 528.34 144.621C528.215 144.82 528.085 145.008 527.955 145.205C527.653 145.659 527.361 146.112 527.085 146.575C527.017 146.647 526.955 146.726 526.887 146.799C526.705 147.018 526.517 147.252 526.33 147.502C526.069 147.763 525.814 148.018 525.564 148.226C525.314 148.44 525.054 148.653 524.845 148.914C524.387 149.47 524.137 150.086 524.043 150.793C523.996 151.159 523.97 151.523 523.944 151.882C523.653 152.304 523.476 152.814 523.455 153.33C523.434 153.403 523.418 153.476 523.403 153.549C523.272 154.357 523.486 155.283 524.08 155.877C524.356 156.882 524.882 157.752 525.751 158.346C526.345 158.752 527.017 158.887 527.689 159.064C527.874 159.131 528.058 159.2 528.247 159.248C529.49 160.475 530.473 162.036 531.934 162.997C538.595 166.846 544.226 172.059 549.153 177.862C550.908 179.851 553.127 182.653 551.184 185.247C551.158 185.283 551.132 185.319 551.1 185.357C554.491 190.836 557.122 200.518 557.955 203.096C559.627 207.226 559.127 211.747 560.236 215.955C560.986 218.7 561.278 221.554 562.054 224.299C563.309 227.21 563.872 230.293 563.673 233.346C563.512 234.169 563.34 234.986 563.251 235.825C563.059 237.575 562.882 239.314 562.793 241.069C562.7 242.919 562.491 244.773 562.34 246.616C562.184 248.543 561.96 250.47 561.819 252.397C561.653 254.783 561.554 257.169 561.356 259.549C561.226 261.049 561.095 262.554 560.976 264.054C560.824 265.33 560.684 266.607 560.569 267.882C560.324 270.46 560.158 273.028 559.757 275.586C559.33 277.965 558.799 280.346 558.246 282.695C557.991 283.768 557.726 284.83 557.418 285.882C557.241 286.486 557.028 287.179 557.059 287.809C557.168 289.97 559.715 291.127 561.408 289.773C561.455 289.731 561.501 289.695 561.543 289.653C561.616 289.903 561.715 290.142 561.861 290.356C562.064 290.664 562.314 290.929 562.595 291.137C562.554 291.658 562.507 292.179 562.47 292.695C562.408 294.007 562.481 295.611 561.278 296.46C560.444 299.121 556.418 298.497 556.408 295.699V295.669C556.288 295.429 556.2 295.164 556.142 294.887C555.804 294.757 555.496 294.564 555.231 294.314C555.21 294.298 555.184 294.283 555.163 294.268C551.335 295.757 549.445 291.752 550.58 288.497C550.564 288.486 550.549 288.475 550.533 288.47C549.476 289.757 548.34 291.548 546.47 291.47C546.299 291.684 546.095 291.877 545.85 292.018C545.215 292.392 544.455 292.325 543.877 291.949C543.679 292.22 543.46 292.47 543.189 292.674C542.335 293.319 541.22 293.314 540.361 292.752C538.387 293.132 536.799 291.059 537.361 289.19C537.767 286.97 539.83 285.809 541.257 284.314C543.054 281.387 544.241 277.96 545.627 274.897C545.679 274.731 545.746 274.564 545.819 274.408C545.767 273.903 545.726 273.397 545.678 272.903C545.695 272.674 545.705 272.445 545.726 272.215C545.72 272.288 545.715 272.356 545.71 272.424C545.793 271.419 545.814 270.419 545.824 269.414C545.84 268.408 545.83 267.377 545.898 266.371C545.95 265.882 546.007 265.382 546.049 264.882C546.038 265.002 546.022 265.127 546.012 265.247C546.074 264.606 546.122 263.96 546.168 263.319C546.257 262.392 546.345 261.465 546.387 260.538C546.434 259.507 546.398 258.475 546.418 257.449C546.445 256.023 546.481 254.601 546.481 253.174C546.481 251.33 546.512 249.492 546.585 247.647C546.648 246.023 546.715 244.397 546.678 242.768V242.685C546.622 241.33 546.278 240.023 545.877 238.731C545.642 237.97 545.221 237.309 544.751 236.669C544.382 236.164 544.012 235.695 543.58 235.252C543.554 235.226 543.528 235.195 543.496 235.169C543.491 235.164 543.486 235.159 543.481 235.153H543.486C543.09 234.757 542.689 234.351 542.189 234.096C541.819 233.403 541.45 232.69 541.095 231.929C539.866 229.21 538.731 226.419 537.772 223.575C537.069 229.492 536.684 235.45 536.127 241.397C534.481 253.497 534.622 265.788 533.934 277.965C534.09 286.382 534.762 294.814 535.074 303.237C538.038 304.487 537.574 309.237 534.34 309.71C531.71 313.107 527.731 314.97 523.793 316.435C522.236 317.07 520.486 316.882 519.049 317.851C519.158 317.793 519.267 317.742 519.377 317.685C519.403 317.674 519.429 317.664 519.455 317.648C517.299 318.898 514.84 319.221 512.403 319.513C509.533 320.336 506.632 320.903 503.731 320.903C501.673 320.903 499.622 320.616 497.569 319.945L497.569 319.945Z" fill="#A8B8C9"/>
<path d="M483.627 148.438C483.623 148.427 483.621 148.419 483.619 148.411C483.64 148.465 483.664 148.524 483.684 148.579C483.663 148.532 483.647 148.485 483.627 148.438Z" fill="#A8B8C9"/>
<path d="M482.289 144.221C482.289 144.223 482.29 144.224 482.291 144.225C482.289 144.224 482.289 144.223 482.289 144.221Z" fill="#A8B8C9"/>
<path d="M482.256 144.13C482.263 144.149 482.27 144.168 482.277 144.188C482.27 144.168 482.263 144.149 482.256 144.13Z" fill="#A8B8C9"/>
<path d="M558.902 212.825C557.272 212.722 554.363 213.064 554.82 210.704C554.261 209.151 554.601 207.368 554.427 205.728C553.965 201.818 552.99 197.777 552.339 193.982C552.322 194.007 552.304 194.033 552.283 194.059C552.137 194.238 551.917 194.357 551.686 194.376C551.928 195.208 551.379 196.372 550.428 195.746C549.607 194.805 549.455 193.377 548.986 192.241C548.263 189.98 546.955 187.905 546.304 185.648C546.304 185.011 547.13 184.908 547.401 185.334C547.342 185.129 547.313 184.918 547.371 184.705C547.388 184.642 547.411 184.582 547.44 184.526C547.425 184.344 547.444 184.161 547.512 183.981C547.57 183.827 547.664 183.701 547.779 183.603C547.722 183.345 547.712 183.076 547.783 182.788C547.787 182.768 547.792 182.749 547.798 182.73C547.677 182.448 547.575 182.155 547.579 181.84C547.584 181.438 547.738 181.06 547.992 180.77C540.804 172.996 531.056 167.988 520.97 165.09C518.168 163.96 518.739 159.671 521.866 159.61C524.588 159.95 527.202 161.029 529.705 162.132C532.316 163.336 535.185 164.038 537.593 165.645C542.807 168.933 547.478 172.977 551.239 177.868C551.232 177.86 551.224 177.853 551.217 177.844C551.191 177.815 551.164 177.784 551.137 177.754C555.772 182.134 556.363 188.71 557.819 194.517C558.211 196.664 559.197 198.642 559.58 200.788C559.902 202.938 560.486 205.127 560.583 207.261C560.91 209.267 562.338 213.246 558.902 212.825V212.825Z" fill="#A8B8C9"/>
<path d="M460.893 221.075C458.141 220.241 455.303 219.965 452.575 219.017C450.91 218.368 450.918 216.469 451.163 214.976C451.597 211.205 452.174 207.138 452.94 203.501C454.976 195.382 456.692 187.159 459.31 179.22C460.104 177.442 460.402 173.493 463.169 174.403C463.835 174.725 464.459 175.255 464.615 176.009C465.182 176.173 465.613 176.612 465.845 177.149C466.273 176.894 466.739 177.016 467.178 177.148C467.643 177.09 468.092 177.426 468.09 177.908C468.081 178.694 467.251 178.715 466.686 178.622C464.828 180.771 464.581 183.681 464.366 186.386C464.183 187.447 464.569 188.703 463.997 189.647C462.676 191.003 461.392 189.001 461.32 187.683C459.681 196.795 456.992 205.372 456.251 214.578C458.779 214.981 464.908 215.833 464.132 219.428C463.775 220.807 462.19 221.571 460.882 221.071L460.893 221.074V221.075Z" fill="#A8B8C9"/>
<path d="M546.961 220.4C545.373 218.891 546.555 215.941 548.768 216.041C550.747 216.159 552.702 215.779 554.662 215.553C554.652 214.526 555.777 214.577 556.488 214.385C558.111 211.243 557.244 207.623 556.79 204.347C554.71 198.248 553.048 191.834 552.088 185.48C551.455 183.142 554.949 182.483 555.185 185.291C555.954 189.388 557.729 192.866 558.473 196.885C559.613 202.624 561.745 208.158 562.404 213.985C562.523 215.655 563.632 217.755 561.321 218.411C557.582 220.025 550.506 223.381 546.961 220.4Z" fill="#A8B8C9"/>
<path d="M549.718 279.334C548.697 279.236 547.889 278.266 547.671 277.349C547.073 275.562 546.252 273.857 545.737 272.033C545.797 271.159 545.818 270.288 545.827 269.413C545.843 268.407 545.827 267.376 545.9 266.37C545.942 265.926 545.993 265.476 546.036 265.03C546.041 264.98 546.047 264.93 546.051 264.881C546.047 264.931 546.041 264.98 546.036 265.03C546.029 265.102 546.021 265.175 546.015 265.246C546.077 264.605 546.119 263.96 546.171 263.314C546.259 262.392 546.343 261.46 546.389 260.537C546.437 259.506 546.4 258.475 546.421 257.448C546.447 256.021 546.483 254.6 546.483 253.172C546.483 251.329 546.515 249.491 546.587 247.647C546.647 246.053 546.713 244.463 546.685 242.874C546.685 242.882 546.686 242.889 546.687 242.897C546.687 242.869 546.685 242.842 546.684 242.815C546.683 242.773 546.682 242.731 546.681 242.688C546.68 242.669 546.679 242.648 546.678 242.628C546.677 242.599 546.676 242.571 546.676 242.542C546.676 242.56 546.676 242.578 546.676 242.596C546.603 241.27 546.271 239.993 545.879 238.73C545.645 237.97 545.223 237.309 544.754 236.668C544.358 236.12 543.957 235.62 543.478 235.152C543.515 235.186 543.551 235.221 543.587 235.256C543.608 235.277 543.629 235.298 543.65 235.319C543.629 235.298 543.608 235.277 543.587 235.256C543.326 234.996 543.065 234.724 542.777 234.488C542.846 232.344 542.996 230.215 543.369 228.147C543.561 227.256 542.999 225.22 544.218 225.069C545.452 225.215 544.718 226.803 544.874 227.62C545.858 227.881 545.963 229.001 545.931 229.855C545.978 230.678 546.009 231.292 546.072 232.048C547.348 232.594 547.004 234.287 547.082 235.418C547.103 237.668 547.108 239.922 547.129 242.168C547.114 246.594 547.572 250.991 547.999 255.392C548.061 255.844 548.15 256.433 547.759 256.751C548.187 260.422 548.749 264.089 549.671 267.668C549.832 268.715 550.379 269.938 549.806 270.922C550.316 273.188 552.192 275.079 552.265 277.402C552.089 278.504 551.125 279.359 550.036 279.359C549.931 279.359 549.825 279.35 549.718 279.334Z" fill="#A8B8C9"/>
<path d="M546.68 242.665C546.68 242.672 546.68 242.68 546.682 242.689V242.745C546.682 242.718 546.68 242.691 546.68 242.665V242.665Z" fill="#A8B8C9"/>
<path d="M543.958 231.541C542.501 228.032 540.73 224.64 538.738 221.395C538.346 220.988 538.214 220.183 538.932 220.062C539.213 220.022 539.47 220.183 539.578 220.429C540.791 222.317 542.008 224.276 543.16 226.223C544.096 227.572 544.698 229.099 545.348 230.583C545.609 230.916 545.561 231.369 545.281 231.672C544.908 232.076 544.266 231.96 543.958 231.541V231.541Z" fill="#A8B8C9"/>
<path d="M537.507 227.778C536.967 227.673 536.317 227.496 536.003 227.002C534.356 226.875 533.57 224.606 534.793 223.48C536.72 222.286 543.288 218.564 544.101 222.368C545.755 221.336 548.364 221.049 548.304 223.699C548.142 225.272 546.505 225.907 545.194 226.319C542.718 227.095 540.124 228.117 537.507 227.778V227.778Z" fill="#A8B8C9"/>
<path d="M546.691 242.383C544.258 238.267 542.418 233.831 540.643 229.387C540.23 227.853 536.284 222.87 539.469 222.661C541.016 222.064 541.233 224.291 541.77 225.241C541.635 224.785 541.408 224.319 541.446 223.835C541.537 223.086 542.602 223.051 542.837 223.726C543.047 224.091 543.376 224.411 543.182 224.836C544.73 228.53 545.898 232.288 547.055 236.101C547.187 236.879 547.823 237.733 547.514 238.504C547.953 239.521 548.44 240.518 548.867 241.539C548.952 241.803 548.884 242.095 548.725 242.316C548.991 242.879 548.701 243.645 548.01 243.633C547.378 243.633 547.002 242.861 546.691 242.383V242.383Z" fill="#A8B8C9"/>
<path d="M547.12 244.447C545.424 243.186 544.815 240.996 544.028 239.126C543.184 236.961 542.25 234.783 541.203 232.75C540.36 230.845 539.224 229.153 538.184 227.371C537.529 226.246 537.351 223.618 539.294 224.063C539.374 224.001 539.461 223.95 539.553 223.91C539.488 223.381 539.353 222.729 539.882 222.396C540.511 222.009 541.251 222.86 540.934 223.465C542.406 224.521 542.764 226.783 543.443 228.335C544.36 230.835 545.073 233.348 546.2 235.756C547.113 237.821 548.157 239.816 549.101 241.861C549.475 242.516 549.997 243.278 549.533 244.027C549.085 244.788 547.79 245.021 547.12 244.447Z" fill="#A8B8C9"/>
<path d="M546.997 282.414C546.84 281.845 546.799 281.262 546.773 280.678C546.753 280.271 546.748 279.865 546.748 279.457C545.75 279.507 545.578 278.402 545.513 277.633C545.061 277.539 544.696 277.128 544.705 276.648C544.654 274.534 544.739 272.398 544.674 270.288C544.396 262.634 544.514 254.774 545.148 247.178C545.479 243.522 544.934 239.882 544.711 236.236C544.644 235.143 544.092 232.524 545.924 232.91C546.093 232.781 546.301 232.705 546.528 232.705C546.543 232.705 546.557 232.705 546.572 232.706C546.694 230.393 546.793 228.084 546.84 225.767C546.866 225.184 546.919 224.502 547.554 224.242C550.023 223.352 549.318 229.99 549.562 231.462C550.119 231.878 549.981 232.61 549.877 233.205C549.304 244.632 549.645 256.162 549.523 267.627C549.518 272.382 549.094 277.207 549.252 281.949C549.455 283.317 547.357 283.778 546.997 282.414Z" fill="#A8B8C9"/>
<path d="M498.629 149.319C496.577 149.077 494.564 148.154 492.493 147.938C489.795 147.312 487.611 145.898 485.461 144.355C479.501 140.644 475.736 134.241 474.129 127.516C472.321 120.04 472.269 115.073 477.597 109.094C478.803 107.749 480.14 106.506 481.227 105.064C481.65 104.283 482.789 103.545 483.446 104.497C483.975 104.858 483.455 105.672 482.906 105.386L482.905 105.385C481.712 108.254 479.449 110.554 478.402 113.474C476.834 117.583 477.473 121.967 478.415 126.147C478.407 126.094 478.396 126.04 478.386 125.988C478.382 125.967 478.378 125.948 478.373 125.928C479.165 130.749 482.063 134.793 485.848 137.699C488.379 139.294 490.566 141.431 493.457 142.34C496.266 143.066 501.991 143.138 501.274 147.309C500.952 148.476 499.845 149.334 498.629 149.319V149.319Z" fill="#A8B8C9"/>
<path d="M519.548 158.373C518.516 153.463 521.705 149.149 524.137 145.149C525.336 143.11 526.86 141.131 528.694 139.67C530.14 138.448 531.799 136.903 533.819 137.035C536.742 137.41 537.012 141.431 534.418 142.492C531.716 144.007 529.759 146.496 527.798 148.832C525.554 151.701 522.637 154.211 521.259 157.659C521.064 158.343 521.416 159.231 520.371 159.31C519.882 159.31 519.475 158.863 519.548 158.373Z" fill="#A8B8C9"/>
<path d="M538.563 146.262C536.277 146.366 534.782 144.797 534.251 142.694C533.714 141.592 533.605 137.545 535.648 138.45C536.541 139.504 536.745 140.948 537.735 141.88C537.653 141.885 537.574 141.889 537.491 141.898C538.649 141.861 539.772 141.432 540.923 141.331C542.866 141.364 543.453 143.721 542.106 144.965C541.177 145.814 539.807 146.243 538.563 146.262V146.262Z" fill="#A8B8C9"/>
<path d="M549.81 138.5C547.881 137.564 549.58 135.435 549.65 133.98C549.469 132.651 549.242 131.365 548.961 130.075C548.422 129.107 547.711 128.252 547.104 127.329C546.791 126.892 546.183 126.357 546.602 125.802C548.056 124.63 551.956 127.989 552.487 129.375C553.739 132.159 553.89 135.732 551.618 138.025C551.211 138.578 550.431 138.765 549.81 138.5V138.5Z" fill="#A8B8C9"/>
<path d="M524.888 165.71C524.338 165.517 524.189 164.957 524.028 164.464C523.739 163.646 523.46 162.822 523.177 162.012C522.921 161.922 522.701 161.735 522.601 161.465C522.227 159.956 522.122 158.362 521.925 156.814C521.417 154 521.054 150.774 521.2 147.98C521.211 147.177 521.326 146.227 522.101 145.793C523.152 145.141 524.54 145.965 524.617 147.163C524.496 152.43 525.954 157.497 526.085 162.755C526.11 163.351 526.352 163.907 526.492 164.48C526.64 165.351 525.68 166.057 524.888 165.71Z" fill="#A8B8C9"/>
<path d="M550.601 185.898C549.322 182.84 548.78 179.273 546.444 176.773C543.711 174.078 540.358 172.133 537.398 169.751C536.385 169.043 535.075 168.344 534.182 167.426C534.191 167.434 534.2 167.442 534.209 167.451C534.213 167.454 534.216 167.457 534.22 167.46C532.497 165.668 530.485 164.455 528.368 163.134C526.311 161.667 523.117 160.963 522.507 158.173C522.511 158.177 522.516 158.18 522.52 158.184C522.454 157.05 523.719 156.263 524.731 156.7C525.75 157.227 526.367 158.328 527.47 158.748C530.918 159.891 534.351 160.876 537.342 162.983C537.341 162.982 537.339 162.98 537.337 162.979C537.333 162.977 537.328 162.973 537.305 162.96C538.214 163.656 539.258 164.275 540.21 164.862C540.168 164.833 540.126 164.805 540.084 164.776C540.068 164.765 540.051 164.753 539.993 164.714C540.019 164.731 540.044 164.748 540.068 164.765C540.359 164.955 540.659 165.145 540.642 165.148C543.697 167.649 547.051 169.665 549.694 172.574C551.111 174.386 551.868 176.623 552.631 178.77C553.521 180.923 554.342 182.626 554.277 184.902C554.303 186.855 551.564 187.619 550.601 185.898V185.898Z" fill="#A8B8C9"/>
<path d="M463.448 289.551C461.321 287.398 460.18 284.132 459.135 281.409C457.427 276.649 456.178 271.745 454.775 266.892C453.649 264.743 452.984 262.313 451.804 260.212C451.428 259.569 451.239 258.815 451.439 258.085C451.305 257.635 451.17 257.185 451.031 256.737C451.034 256.738 451.035 256.739 451.037 256.74C451.015 256.655 450.995 256.572 450.979 256.487C450.89 255.985 451.051 255.456 451.357 255.049C451.154 253.531 451.155 252.075 450.692 250.613C450.506 249.89 450.217 249.07 450.522 248.36C449.796 246.202 449.888 243.797 450.43 241.607C449.663 239.221 450.974 236.512 452.544 234.805C453.45 229.008 452.177 222.914 454.408 217.265C454.244 216.83 454.703 216.514 454.764 216.097C454.887 215.676 454.998 215.056 455.464 214.906C455.547 214.159 455.63 213.41 455.682 212.664C455.782 211.559 457.517 211.563 457.625 212.664C457.57 214.49 457.237 216.341 457.044 218.164C459.964 217.196 458.838 226.064 458.252 227.55C457.922 228.435 457.467 229.28 457.143 230.17C457.112 231.507 457.265 232.923 456.569 234.057C459.452 235.103 457.512 238.58 457.357 240.704C458.271 241.706 459.13 243.975 457.058 244.096C457.237 247.525 456.472 250.809 455.859 254.127C457.086 257.671 458.697 261.087 460.575 264.325C464.248 264.082 463.687 269.54 464.82 271.956C466.443 272.113 467.205 273.658 467.386 275.109C468.541 274.493 470.109 273.775 471.073 275.081C471.656 275.836 471.604 276.976 470.911 277.648C469.911 278.584 468.969 279.567 467.834 280.351C467.948 282.227 469.425 284.442 467.839 286.036C468.703 288.59 465.75 291.342 463.448 289.55V289.551Z" fill="#A8B8C9"/>
<path d="M455.283 230.912C455.28 230.47 455.358 230.059 455.48 229.642C455.691 228.848 456.91 229.186 456.699 229.975C456.464 230.555 456.822 231.614 455.929 231.657C455.517 231.657 455.252 231.303 455.283 230.912Z" fill="#A8B8C9"/>
<path d="M455.888 227.553C455.885 226.795 457.069 226.789 457.065 227.553C457.068 228.311 455.883 228.317 455.888 227.553Z" fill="#A8B8C9"/>
<path d="M462.498 290.29C460.896 289.225 460.477 286.876 459.741 285.294C459.014 283.298 458.004 281.405 457.45 279.348C457.495 279.475 457.534 279.581 457.576 279.702C454.351 270.3 451.18 260.9 449.851 251.035C449.356 248.024 448.399 244.959 449.269 241.924C450.258 239.109 451.106 235.882 453.203 233.665C454.157 228.311 453.485 222.941 454.607 217.654C454.938 216.774 454.79 215.582 455.513 214.926C456.09 214.584 456.701 215.166 456.6 215.704C456.333 222.193 457.1 228.902 456.174 235.311C455.307 237.478 454.535 239.784 453.932 241.996C453.587 244.854 454.015 248.137 454.466 250.884C455.534 257.103 457.388 263.139 459.633 268.967C459.604 268.871 459.541 268.706 459.523 268.639C461.408 273.604 463.11 278.592 465.101 283.439C465.096 283.426 465.092 283.413 465.087 283.398C465.085 283.392 465.082 283.384 465.081 283.378C465.538 285.034 466.859 286.474 466.758 288.238C466.547 290.202 464.157 291.317 462.498 290.29Z" fill="#A8B8C9"/>
</g>
<defs>
<clipPath id="clip0_408_2345">
<rect width="687" height="283" fill="white"/>
</clipPath>
</defs>
</svg>
