<svg viewBox="0 0 375 375" fill="none" xmlns="http://www.w3.org/2000/svg" preserveAspectRatio="none">
  <path d="M89.2997 302.285C68.4936 301.298 43.0009 298.531 28.7989 281.631C22.3651 274.82 18.3418 266.469 15.4568 257.644C12.025 250.681 10.8154 242.636 10.8244 235.019C10.5913 217.447 6.89937 200.52 5.40331 183.12C3.32415 163.891 0.385451 144.769 1.02131 125.396C0.779767 109.009 0.815551 92.62 0.591211 76.2303C-0.107731 62.0829 -0.0446622 47.0293 8.22542 34.8521C13.1091 27.5673 20.8598 23.6057 28.8523 20.8201C37.2575 15.2723 47.1051 12.9528 57.0598 13.4905C57.5798 12.2887 59.0046 11.9224 60.1694 11.6356C63.888 10.8112 67.5887 10.2905 71.3251 10.0407C76.0473 9.56474 80.7784 9.73495 85.5095 9.9063C91.2441 10.1114 96.9788 10.3174 102.641 9.37756C109.64 8.92957 116.44 6.84949 123.367 6.67149C133.412 6.39255 143.223 4.315 153.098 2.63933C165.239 0.578514 177.667 1.13294 189.934 0.856301C194.818 1.06229 199.809 0.944845 204.791 0.828316C210.211 0.693895 215.623 0.569568 220.875 0.865247C227.998 1.86881 235.39 1.32219 242.316 0.865247C253.58 0.371377 264.87 0.426201 276.133 0.272741C292.513 -0.362431 309.296 -0.327564 324.43 6.68846C335.855 10.5594 348.722 14.5915 355.209 25.5512C358.461 31.3127 357.987 38.247 359.313 44.5731C360.003 50.1554 361.463 55.0478 362.019 60.5237C362.288 68.614 363.238 76.6076 364.116 84.6183C365.289 90.2275 364.178 95.98 364.322 101.652C365.505 115.442 366.875 129.223 368.21 143.012C368.838 149.957 369.008 156.955 369.367 163.845C370.917 176.605 373.219 189.312 372.995 202.215C373.954 215.744 375.549 229.373 372.691 242.831C371.58 253.379 368.56 263.406 363.829 272.886C362.467 276.022 361.006 279.194 358.551 281.648C354.913 284.703 351.195 287.939 346.912 290.072C342.646 291.9 338.058 292.787 333.784 294.596C329.627 296.137 324.95 296.837 320.819 298.171C318.536 298.525 316.18 298.331 313.818 298.017C313.833 297.854 313.849 297.691 313.865 297.527C313.964 296.515 313.973 295.484 314.009 294.472C314.021 294.143 314.033 293.815 314.045 293.487C315.881 293.716 317.714 293.89 319.546 293.843C327.145 292.043 334.43 289.551 341.714 287.214C347.09 285.716 351.553 281.666 355.639 278.182C360.388 271.461 363.345 263.199 365.898 255.421C368.085 244.113 370.28 232.653 369.895 221.086C368.864 210.521 368.3 199.947 368.103 189.356C367.717 181.23 365.594 173.299 364.949 165.2C364.492 148.99 362.556 132.969 361.31 116.821C359.241 106.67 360.477 96.3108 359.823 86.0882C357.879 74.5741 358.479 62.6017 355.827 51.2501C352.754 35.2636 355.719 25.183 338.587 16.8946C333.506 14.4216 328.238 12.7739 323.023 10.9548C316.177 8.21297 309.063 5.71196 301.679 5.19332C282.02 3.80438 261.975 5.08574 242.307 5.36352C234.583 6.02668 226.627 6.22372 218.992 5.2291C200.238 5.38921 181.493 5.29081 162.757 5.89226C149.979 7.14563 137.596 10.7298 124.81 11.0892C116.861 11.3212 109.299 13.5354 101.414 14.0552C96.8802 14.9053 92.3191 14.6645 87.776 14.4305C85.5001 14.314 83.2243 14.1986 80.9665 14.2165C76.5666 14.0272 72.3824 15.3455 68.0456 15.7027C61.0296 16.6356 53.7268 16.9122 46.7553 17.4231C39.1748 18.5622 33.1355 23.6057 26.0749 26.2132C20.2682 28.2751 15.0713 32.0116 11.5591 36.9478C5.23309 46.41 4.06801 58.0406 4.84769 69.0709C5.21471 80.0922 5.11655 91.1315 5.38539 102.162C5.32231 120.378 4.76675 138.695 6.62157 156.838C9.03197 171.337 9.32761 186.067 11.6846 200.556C14.4533 215.323 13.9963 230.609 15.6268 245.449C20.1969 263.271 29.4978 281.684 46.8631 289.803C60.1783 295.054 74.8372 297.445 89.0216 297.778C100.088 298.674 111.074 297.392 122.05 296.111C132.417 294.911 142.784 293.7 153.205 294.328C156.279 294.309 159.298 294.739 162.309 295.16C165.938 295.681 169.558 296.201 173.241 295.941C179.773 296.246 185.857 294.4 192.29 294.139C200.964 294.13 209.79 296.407 218.347 296.55C223.303 296.766 228.061 295.054 232.98 294.874C239.458 294.678 246.331 296.192 252.702 296.442C256.295 296.783 259.879 296.631 263.463 296.479C266.254 296.36 269.044 296.239 271.846 296.358C271.939 297.125 272.062 297.889 272.218 298.647C272.375 299.411 272.555 300.17 272.757 300.926C260.597 301.168 248.449 301.149 236.376 299.355C233.016 299.229 229.799 299.605 226.627 300.269C216.17 302.401 206.099 299.461 195.785 298.735C192.031 298.414 188.339 298.978 184.647 299.543C181.251 300.053 177.856 300.572 174.415 300.412C167.246 301.075 160.32 298.906 153.17 298.826C142.758 298.217 132.489 299.418 122.229 300.617C113.85 301.601 105.471 302.584 97.0188 302.584C94.4531 302.584 91.8814 302.492 89.2997 302.285V302.285Z" fill="black"/>
  <path d="M310.264 374.72C300.089 363.099 290.779 350.464 283.194 336.97C278.666 324.565 273.763 312.247 271.444 299.253C268.995 297.633 272.1 294.578 273.903 296.827C276.193 302.059 277.258 308.043 279.136 313.475C281.869 322.691 284.717 331.972 289.315 340.285C294.656 349.446 300.817 358.054 307.453 366.266C302.298 348.644 299.261 330.023 300.153 311.658C300.779 306.371 300.679 300.731 303.042 295.868C304.027 293.932 306.516 294.102 308.329 294.403C310.435 293.374 312.659 293.043 314.966 293.424C316.832 293.099 318.736 295.228 317.423 296.897C316.079 298.567 313.874 297.619 312.064 297.806C310.303 298.518 308.544 299.252 306.615 298.747C303.609 310.404 304.206 322.733 305.47 334.515C306.713 343.699 307.43 353.109 310.103 361.977C311.074 365.39 311.599 368.773 312.513 372.147C313.198 373.655 311.999 375.651 310.264 374.72V374.72Z" fill="black"/>
  <path d="M369.892 221.089C370.278 232.657 368.082 244.118 365.896 255.425C363.342 263.203 360.385 271.464 355.636 278.184C351.55 281.671 347.088 285.721 341.712 287.216C334.427 289.556 327.143 292.047 319.544 293.848C318.576 293.875 317.608 293.829 316.632 293.759C316.139 293.463 315.548 293.328 314.965 293.427C312.662 293.042 310.431 293.372 308.335 294.403C306.516 294.098 304.025 293.928 303.039 295.864C300.682 300.73 300.781 306.375 300.154 311.661C299.258 330.021 302.295 348.641 307.456 366.266C300.817 358.049 294.661 349.447 289.312 340.289C284.715 331.974 281.866 322.692 279.133 313.479C277.26 308.042 276.193 302.065 273.908 296.831C273.129 295.855 272.099 295.873 271.391 296.339C268.738 296.248 266.104 296.365 263.461 296.482C259.877 296.635 256.293 296.787 252.7 296.447C246.328 296.196 239.456 294.68 232.978 294.879C228.058 295.058 223.3 296.769 218.345 296.553C209.788 296.41 200.962 294.135 192.288 294.144C185.854 294.403 179.771 296.249 173.238 295.944C169.556 296.205 165.935 295.684 162.307 295.165C159.296 294.744 156.276 294.314 153.203 294.332C142.782 293.705 132.415 294.914 122.047 296.114C111.071 297.395 100.085 298.677 89.0195 297.782C74.8352 297.451 60.1759 295.058 46.8607 289.806C29.4955 281.689 20.1945 263.274 15.6247 245.453C13.994 230.614 14.4509 215.328 11.6818 200.561C9.3255 186.072 9.02982 171.341 6.61919 156.843C4.76437 138.698 5.32015 120.384 5.38301 102.166C5.11417 91.1368 5.21263 80.0975 4.84538 69.0762C4.06547 58.0459 5.23025 46.4153 11.5567 36.9531C15.0691 32.0149 20.2661 28.2784 26.0726 26.2185C33.1333 23.611 39.1724 18.5652 46.7532 17.4272C53.7245 16.9175 61.0272 16.6397 68.043 15.7068C72.3798 15.3494 76.5642 14.0323 80.9639 14.2195C83.2217 14.2027 85.4976 14.3193 87.7735 14.4356C92.3168 14.6675 96.8776 14.9104 101.411 14.0591C109.296 13.5382 116.859 11.3262 124.807 11.092C137.594 10.7346 149.977 7.15047 162.754 5.89618C181.491 5.29588 200.236 5.39337 218.99 5.23188C226.624 6.2265 234.581 6.03037 242.305 5.3663C261.973 5.08851 282.018 3.80716 301.677 5.19609C309.06 5.71703 316.175 8.21574 323.02 10.9576C328.235 12.7778 333.504 14.4252 338.585 16.8994C355.717 25.1878 352.751 35.2682 355.825 51.2526C358.477 62.6066 357.877 74.5767 359.821 86.0907C360.475 96.3157 359.239 106.674 361.308 116.826C362.554 132.972 364.489 148.993 364.947 165.202C365.592 173.304 367.715 181.234 368.101 189.361C368.298 199.952 368.862 210.524 369.893 221.089H369.892Z" fill="white"/>
</svg>