<svg width="91" height="92" viewBox="0 0 91 92" fill="none" xmlns="http://www.w3.org/2000/svg">
<path d="M38.9047 91.2295C30.7028 91.3779 22.8741 88.3935 16.6442 83.0992C11.3226 79.0908 6.72239 74.1135 3.97692 67.9854C-1.06868 53.8096 -1.79456 35.9079 5.81091 22.5107C23.0081 -3.68597 59.6566 -8.30182 78.8109 18.417C82.9073 26.0518 86.4906 34.0218 89.5401 42.1572C91.8115 49.7659 90.1175 57.9027 87.7074 65.2555C83.865 73.5653 78.2113 82.1591 69.5349 85.9488C59.9203 89.982 49.2165 90.8375 38.9047 91.2294V91.2295Z" fill="black"/>
<path d="M19.6765 50.1335C19.5561 49.2396 20.0794 48.5463 20.7839 48.2728C23.3535 45.778 27.4109 46.5138 30.6713 45.8732C38.3307 45.1654 46.0625 45.0691 53.4121 44.3855C56.2351 44.1687 59.0027 43.5418 61.8223 43.3002C66.3808 43.2383 66.8751 50.1791 62.3327 50.7469C49.0475 52.0705 35.7182 50.8524 22.4278 51.3842C21.4018 52.0658 19.8535 51.4043 19.6765 50.1335V50.1335Z" fill="white"/>
<path d="M46.3422 68.3196C45.1124 66.7258 45.4881 64.5221 46.9933 63.2721C48.0233 62.5996 48.6912 61.612 49.3761 60.6113C53.197 55.815 56.9483 51.0032 60.7329 46.1784C57.5389 43.1224 55.2616 40.565 52.436 37.4616C49.4464 34.3098 45.2439 31.6217 44.0498 27.2206C43.6846 25.7369 45.2516 24.1887 46.6774 24.9797C47.2594 25.0825 47.8227 25.4835 47.9295 26.1495C54.0557 30.2719 60.6788 34.4347 65.9985 39.533C67.9777 41.2941 70.8162 42.9797 70.8891 45.9386C70.7387 49.2478 67.2238 50.9262 65.2537 53.1834C62.7889 55.5994 60.772 58.2961 58.5089 60.8663C58.5213 60.8514 58.5338 60.8384 58.5454 60.8241C58.5648 60.8013 58.5837 60.7791 58.602 60.7563C55.3215 63.5741 51.4274 73.3156 46.3422 68.3196V68.3196Z" fill="white"/>
</svg>
