<svg viewBox="9 0 48 50" fill="none" xmlns="http://www.w3.org/2000/svg">
<rect x="5.34604" y="17.8725" width="12" height="12" transform="rotate(22.1007 5.34604 17.8725)" />
<rect x="25.439" y="44.1671" width="15.8358" height="15.8358" transform="rotate(119.806 25.439 44.1671)" />
<rect x="18.7807" y="2.40973" width="12" height="12" transform="rotate(101.584 18.7807 2.40973)" />
<rect x="28.063" y="28.0736" width="7.24217" height="7.24217" transform="rotate(81.6039 28.063 28.0736)" />
<rect x="32.8525" y="18.7552" width="4.70446" height="4.70446" transform="rotate(99.2373 32.8525 18.7552)" />
<rect x="37.2377" y="34.7006" width="4.70446" height="4.70446" transform="rotate(80.7227 37.2377 34.7006)" />
<rect x="27.1476" y="6.62476" width="4.70446" height="4.70446" transform="rotate(61.6179 27.1476 6.62476)" />
<rect x="38.7793" y="29.567" width="2.2272" height="2.2272" transform="rotate(61.6179 38.7793 29.567)" />
<rect x="44.8446" y="44.0403" width="2.2272" height="2.2272" transform="rotate(-4.00091 44.8446 44.0403)" />
<rect x="38.3289" y="17.8725" width="2.2272" height="2.2272" transform="rotate(61.6179 38.3289 17.8725)" />
</svg>
