<svg width="13" height="13" viewBox="0 0 13 13" fill="none" xmlns="http://www.w3.org/2000/svg">
<path fill-rule="evenodd" clip-rule="evenodd" d="M10.0156 1.03125C10.4471 1.03125 10.7969 1.38103 10.7969 1.8125V11.1875C10.7969 11.619 10.4471 11.9688 10.0156 11.9688H2.98437C2.5529 11.9688 2.20312 11.619 2.20312 11.1875V1.8125C2.20312 1.38103 2.5529 1.03125 2.98438 1.03125H10.0156ZM9.23438 1.8125H10.0156V11.1875H2.98437L2.98438 1.8125H6.10938V5.32812C6.10938 5.48612 6.20455 5.62855 6.35051 5.68902C6.49648 5.74948 6.6645 5.71606 6.77621 5.60434L7.67188 4.70868L8.56754 5.60434C8.67925 5.71606 8.84727 5.74948 8.99324 5.68902C9.1392 5.62855 9.23438 5.48612 9.23438 5.32812V1.8125ZM8.45312 1.8125H6.89062V4.38507L7.39566 3.88004C7.54821 3.72749 7.79554 3.72749 7.94809 3.88004L8.45312 4.38507V1.8125Z" />
</svg>
