<svg width="94" height="92" viewBox="0 0 94 92" fill="none" xmlns="http://www.w3.org/2000/svg">
<path d="M39.5528 90.4423C18.8184 85.3558 -1.89117 66.413 0.836698 43.5959C3.00336 19.2945 23.5724 -3.67884 49.4207 1.14543C67.9161 4.98716 90.2788 17.7502 93.2364 37.9905C96.3295 67.1181 69.5444 96.8843 39.5528 90.4423Z" fill="black"/>
<path d="M52.7222 51.7026C45.9462 51.2482 39.1934 50.573 32.4036 50.3589C30.2279 49.9169 25.2559 51.4129 25.2266 48.0881C25.5136 45.1669 33.4296 45.7638 35.737 45.3484C43.2578 44.5574 50.7976 45.3387 58.3288 44.8973C62.2396 44.6043 66.1478 44.0269 70.0755 44.1974C71.6901 44.1961 73.1582 45.4351 73.3522 47.0509C73.5911 48.8217 72.3152 50.5509 70.5293 50.7755C64.2656 51.5282 58.8457 51.9702 52.722 51.7026H52.7222Z" fill="white"/>
<path d="M42.9572 69.1603C39.2853 66.7124 36.7489 62.5555 33.187 59.6232C29.7085 56.7242 27.3973 53.3556 24.9103 49.6695C23.9871 48.4852 24.0835 46.562 25.1766 45.566C27.1454 44.2698 28.0041 42.0145 29.6603 40.3733C31.4937 38.3239 33.4065 36.3505 35.2319 34.2952C37.7821 31.8551 43.3699 22.6871 46.7599 24.0706C48.6219 24.889 48.4526 27.1252 46.9539 28.2293C46.3674 28.9109 46.273 30.146 45.2 30.2325C44.8843 30.6772 44.5764 31.1271 44.2692 31.5783C44.1599 31.7443 44.0452 31.9051 43.9372 32.0704C43.986 31.9975 44.0336 31.9245 44.0824 31.8516C44.0966 31.8308 44.1104 31.8106 44.1247 31.7898C40.5192 37.7696 35.383 42.5469 31.5101 48.3092C32.7197 49.9179 33.5758 51.6913 34.9938 53.0292C34.9489 52.9888 34.9021 52.9458 34.9053 52.951C34.8818 52.9289 34.8578 52.9075 34.8324 52.886C38.6826 56.2246 42.3057 59.789 45.721 63.3131C46.6117 63.8183 47.4033 64.507 47.6709 65.5344C48.5029 68.2173 45.3194 70.608 42.9574 69.16L42.9572 69.1603Z" fill="white"/>
</svg>
