<svg width="13" height="13" viewBox="0 0 13 13" fill="none" xmlns="http://www.w3.org/2000/svg">
<path fill-rule="evenodd" clip-rule="evenodd" d="M9.66334 6.56181C9.90561 6.02034 10.0156 5.59415 10.0156 5.29688C10.0156 3.35525 8.44163 1.78125 6.5 1.78125C4.55837 1.78125 2.98438 3.35525 2.98438 5.29688C2.98438 5.59415 3.09439 6.02034 3.33666 6.56181C3.57301 7.09003 3.90713 7.66696 4.28858 8.24731C5.03632 9.38497 5.92589 10.4758 6.5 11.1465C7.07412 10.4758 7.96368 9.38497 8.71142 8.24731C9.09287 7.66696 9.42699 7.09003 9.66334 6.56181ZM7.05909 11.6946C8.22256 10.3396 10.7969 7.13371 10.7969 5.29688C10.7969 2.92378 8.8731 1 6.5 1C4.1269 1 2.20312 2.92378 2.20312 5.29688C2.20312 7.13371 4.77744 10.3396 5.94091 11.6946C6.23815 12.0408 6.76185 12.0408 7.05909 11.6946Z" />
</svg>
