<svg width="193" height="231" viewBox="0 0 193 231" fill="none" xmlns="http://www.w3.org/2000/svg">
<g clip-path="url(#clip0_360_6562)">
<path d="M188.14 218.038C188.552 218.032 188.898 218.391 188.898 218.795C188.898 219.224 188.552 219.54 188.14 219.556C186.903 219.585 185.511 219.668 184.311 219.605C184.238 220.563 183.176 221.156 182.309 220.8C182.306 220.8 182.302 220.797 182.299 220.797C178.49 219.572 174.552 219.421 170.627 219.559C169.233 219.49 167.544 220.003 166.304 219.256C163.289 219.227 160.298 219.023 157.293 219.414C156.169 219.596 154.929 220.399 154.118 219.342C153.452 218.216 153.201 215.747 155.176 216.267C155.216 216.224 155.256 216.182 155.302 216.142C155.397 216.056 155.496 215.971 155.602 215.892C155.602 215.885 155.598 215.879 155.595 215.869C155.236 215.786 154.936 215.743 154.583 215.677C153.804 215.572 153.9 214.381 154.682 214.407C157.317 214.562 160.024 214.345 162.656 214.627C164.638 214.667 166.531 214.742 168.464 214.871C169.912 214.71 171.735 215.711 170.759 217.327C173.286 217.594 175.776 217.038 178.269 217.232C181.61 217.505 184.769 218.397 188.14 218.038V218.038Z" fill="black"/>
<path d="M57.0267 213.78C58.1413 213.421 59.8532 213.503 59.566 215.1C59.1538 216.054 58.1349 216.72 57.2112 217.058C57.904 217.891 57.5413 219.218 56.5648 219.649C57.5446 221.114 55.5328 222.29 54.2235 221.858C52.8612 221.335 51.3575 221.635 49.9226 221.414C47.3174 220.953 44.7846 221.44 42.1723 221.615C41.117 221.668 39.9167 222.089 39.0131 221.42C37.8126 221.816 36.5657 221.823 35.3193 221.727C34.0988 221.684 32.3542 221.595 32.1233 220.094C29.4093 220.749 26.9223 222.195 24.1125 222.023C23.3209 221.819 23.0637 220.759 23.7235 220.249C25.2865 219.527 26.8863 219.077 28.4329 218.356C25.2439 218.681 21.9621 218.869 18.8161 219.311C18.5718 219.593 18.0641 219.347 18.1334 218.978C18.1628 218.698 18.4267 218.567 18.6774 218.49C22.1932 217.612 25.8439 217.427 29.4225 216.907C30.7944 216.881 36.378 214.497 36.2062 216.802C36.5789 217.065 36.8496 217.451 36.8889 217.938C36.9056 218.158 36.8922 218.372 36.8427 218.576C37.9377 218.553 38.9007 217.872 39.933 217.566C41.6842 216.993 43.6698 216.677 45.378 216.081C49.0489 214.754 53.1087 213.405 57.0267 213.78Z" fill="black"/>
<path d="M155.04 209.303C156.623 210.428 157.632 212.246 157.345 214.205C157.388 215.943 156.323 217.411 154.967 218.389C154.954 218.398 154.944 218.409 154.931 218.415C151.531 221.065 147.201 221.632 143.045 221.826C140.631 222.24 138.289 222.073 135.934 221.905C132.05 221.622 128.099 221.747 124.359 220.66C124.17 221.984 123.171 222.906 122.142 223.656C119.418 225.829 115.975 226.205 112.746 227.126C109.749 227.712 106.734 227.775 103.703 227.792C99.8677 228.144 96.0717 227.976 92.2295 228.068C87.5793 227.913 82.9226 228.081 78.2622 228.055C76.0526 227.929 73.764 227.864 71.6201 227.956C69.4071 227.578 67.2669 227.038 65.0801 226.665C65.1131 226.679 65.1463 226.689 65.1824 226.698C64.0643 226.429 63.0057 225.994 61.9274 225.619C60.6082 225.197 59.0514 224.611 58.5635 223.231C56.9538 221.454 57.1023 218.511 58.3029 216.542C59.9616 213.477 62.3164 210.672 65.3508 208.904C65.344 208.907 65.3374 208.914 65.3308 208.921C65.8189 208.683 66.7228 208.825 67.0358 209.303C71.584 206.814 76.6792 206.139 81.6726 205.099C85.3761 204.404 89.1226 203.515 92.9089 203.636C96.8665 203.804 100.633 205.141 104.435 205.845C106.962 206.294 109.082 206.576 111.543 206.899C110.593 206.161 110.652 204.588 111.694 203.966C112.951 203.396 114.405 203.393 115.744 203.09C115.899 201.309 117.924 201.414 119.253 201.309C120.536 201.194 121.796 201.019 123.066 200.825C124.659 199.373 126.898 201.009 128.712 201.141C133.903 201.991 139.124 203.199 144.196 204.479C147.853 205.947 152.006 206.761 155.04 209.303V209.303ZM119.178 209.727C120.296 208.983 119.949 209.223 121.268 208.246C120.008 208.42 118.749 208.572 117.482 208.693C118.056 209.059 118.636 209.408 119.22 209.757C119.204 209.747 119.191 209.737 119.178 209.727ZM80.9932 208.996C81.0062 208.96 81.0194 208.924 81.0361 208.891C80.8844 208.921 80.7358 208.947 80.584 208.977C80.5808 209.006 80.5775 209.036 80.571 209.065C80.7129 209.039 80.8512 209.016 80.9932 208.996V208.996Z" fill="white"/>
<path d="M128.531 138.06C129.876 136.48 132.37 138.112 131.561 139.969C129.289 144.466 127.878 148.759 125.397 152.812C124.438 154.445 123.498 156.107 122.307 157.586C121.823 158.172 121.183 158.724 120.388 158.741C119.547 159.801 118.825 160.729 118.175 161.677C117.878 162.287 117.245 162.639 116.602 162.659C117.05 163.973 117.476 165.293 117.819 166.616C118.182 168.361 118.897 169.99 119.461 171.673C120.019 173.76 120.108 175.936 120.266 178.083C121.608 178.906 121.641 180.792 122.324 182.103C123.221 182.833 123.363 184.17 123.537 185.253C123.947 186.554 124.844 188.13 123.927 189.405C121.585 191.785 120.009 187.884 119.234 186.106C119.065 186.698 118.577 187.172 117.984 187.333C117.882 187.36 117.782 187.38 117.683 187.389C116.361 189.362 114.409 188.042 113.924 186.168C113.957 187.248 113.195 188.433 111.998 188.321C112.087 189.721 110.85 191.027 109.429 190.435C108.222 190.023 108.017 188.621 107.519 187.607C107.427 188.963 105.867 190.066 104.614 189.381C104.525 189.464 104.426 189.536 104.32 189.598C103.96 189.806 103.542 189.901 103.133 189.879C103.14 191.159 102.753 192.717 101.322 193.042C100.468 193.26 99.5084 192.934 99.0302 192.183C98.5157 192.7 97.7176 192.798 97.0446 192.568C96.8401 193.542 96.1345 194.475 95.0493 194.425C94.8349 197.148 91.5666 197.53 90.9138 194.764C89.3008 196.92 87.1868 195.726 86.5965 193.467C85.861 193.826 84.9046 193.644 84.3672 192.96C84.2155 192.769 84.0836 192.572 83.9781 192.361C83.734 192.65 83.437 192.914 83.0742 193.042C82.8172 195.518 79.6311 195.495 78.9849 193.27C78.6384 193.503 78.2162 193.592 77.8108 193.549C77.5336 195.311 75.4789 196.163 74.3347 194.602C74.2292 194.655 74.1171 194.695 73.9981 194.721C73.9686 194.728 73.942 194.731 73.9126 194.738C73.9486 196.397 71.914 197.542 70.6111 196.41C70.4528 197.2 70.0539 198.096 69.1074 198.076C68.497 198.076 67.9036 197.632 67.778 197.026C67.7915 197.141 67.7948 197.253 67.778 197.365C67.6132 197.822 67.0098 197.691 66.9272 197.256C66.68 197.167 66.6306 196.891 66.7095 196.684C65.4562 195.09 65.5486 193.016 65.2979 191.097C64.8 187.205 64.843 183.195 63.9161 179.386C63.019 176.097 62.5081 172.726 61.9804 169.368C61.8716 168.236 61.6372 167.08 61.4789 165.928C61.1656 165.934 60.849 165.921 60.5291 165.882C59.9917 166.319 59.2034 166.488 58.5206 166.257C56.5846 165.733 55.4899 164.074 54.3156 162.603C52.1422 160.028 50.3252 157.006 47.7297 154.83C46.9314 154.284 46.2489 153.533 45.5528 152.809H45.5495C44.3424 152.391 43.0661 152.259 41.8394 151.9C41.2392 151.834 40.6421 151.564 40.3026 151.044C39.125 151.331 37.6969 150.445 38.7919 149.286C38.7391 149.02 38.7624 148.74 38.8746 148.48C38.9702 148.246 39.1217 148.058 39.3099 147.92H39.3033C42.6244 146.178 46.2159 144.677 49.7677 143.643C51.3839 142.247 53.5175 141.391 55.3448 140.322C56.9212 139.518 58.5206 138.705 60.2718 138.369C61.3173 137.72 62.3531 137.138 63.3524 138.152C64.0843 137.642 64.9519 137.372 65.7729 137.029C66.3799 136.733 67.0822 136.569 67.7187 136.865C68.2202 137.082 68.5434 137.444 68.86 137.793C69.48 138.202 70.1133 138.58 70.7133 139.015C72.158 140.368 73.355 141.935 74.8657 143.229C81.0031 141.556 87.3585 141.451 93.6674 141.388C94.2349 140.809 94.515 140.012 94.7494 139.248C94.736 139.297 94.7261 139.347 94.7164 139.399C94.7164 139.406 94.7131 139.413 94.7032 139.482C94.7854 139.07 94.8844 138.662 94.9899 138.254C93.2519 137.605 94.1722 135.528 95.9169 135.93C96.3685 134.968 97.4471 134.89 98.3343 134.949C101.091 134.689 103.796 134.007 106.583 134.152C107.766 134.175 108.944 134.171 110.121 134.099C111.414 133.777 112.968 134.211 112.835 135.782C113.001 135.857 113.169 135.962 113.34 136.098C114.224 135.195 115.909 135.374 116.463 136.545C117.162 135.91 118.142 136.071 118.897 136.502C119.346 136.628 119.857 136.687 120.259 136.779C123.01 137.207 125.774 137.72 128.531 138.06V138.06ZM67.7583 196.894C67.7321 196.621 67.6958 196.354 67.6528 196.088C67.6332 196.371 67.7121 196.634 67.7583 196.894ZM54.8237 157.503C54.8237 157.484 54.8268 157.467 54.8301 157.447C54.8171 157.454 54.8072 157.46 54.7938 157.463C54.8039 157.477 54.8138 157.49 54.8237 157.503Z" fill="#FF0020"/>
<path d="M66.6775 184.146C66.6323 183.83 66.6065 183.511 66.5948 183.19C66.5934 183.157 66.5925 183.124 66.5925 183.09C66.5132 183.089 66.4342 183.083 66.3567 183.071C66.4371 183.441 66.4472 183.83 66.6775 184.146V184.146ZM67.2478 192.362C67.1581 192.311 67.0716 192.253 66.9885 192.192C66.2708 192.291 65.5769 191.963 65.0907 191.43C64.8194 191.134 64.583 190.798 64.3684 190.447C64.3165 191.85 62.7324 192.6 61.5136 192.027C58.9696 191.043 57.7953 188.227 56.6511 185.946C56.1067 184.608 55.6733 183.205 55.4873 181.772C55.1204 179.322 56.1645 176.905 55.8171 174.475C55.4455 174.139 55.1064 173.764 54.7772 173.388C54.4652 173.302 54.1681 173.149 53.8886 172.975C52.6669 173.049 51.4691 172.6 50.4675 171.936C49.2627 171.752 48.1115 171.319 46.9684 170.914C44.2502 169.892 42.0451 167.958 39.338 166.949C36.7342 165.827 33.7036 166.333 31.1575 164.958C30.4594 164.647 29.6895 164.255 29.4368 163.488C26.9264 163.968 26.4313 160.754 28.1895 159.559C30.2699 157.951 32.6435 157.168 34.5236 155.352C34.3395 153.296 37.0686 152.181 38.053 154.175C38.0782 154.158 38.1033 154.142 38.1295 154.127C38.4849 153.919 38.9095 153.845 39.3133 153.904C39.5081 153.796 39.7218 153.726 39.9409 153.694C40.7403 152.859 41.8789 153.242 42.7983 153.633C43.4927 153.156 44.4864 153.376 45.0749 153.927C46.6476 155.436 48.1961 156.957 49.8216 158.414C50.7071 159.022 51.8119 159.712 51.9894 160.838C52.8592 161.789 53.9057 163.179 52.7174 164.328C53.706 164.77 54.3532 165.784 55.0629 166.57C56.4639 165.895 57.6201 167.179 58.2673 168.294C58.7651 167.121 59.7898 166.189 61.1597 166.282C61.8028 166.324 62.4084 166.54 62.9534 166.869C63.5007 166.41 64.2198 166.203 64.959 166.381C64.9755 166.385 64.9922 166.389 65.0085 166.393C65.8346 165.507 67.301 165.398 68.1822 166.266C68.5357 166.062 68.9498 165.963 69.4047 166.025C69.5999 166.051 69.7823 166.104 69.9528 166.175C70.2793 165.922 70.6744 165.753 71.1194 165.686C71.9539 165.563 72.7332 166.024 73.2968 166.611C73.529 166.554 73.7764 166.54 74.0351 166.575C74.293 166.61 74.5232 166.693 74.7285 166.81C74.9934 166.752 75.2679 166.747 75.5365 166.794C76.024 166.504 76.6036 166.352 77.1624 166.511C77.2546 166.451 77.3521 166.403 77.4529 166.361C77.9012 164.365 80.8441 164.652 81.0234 166.647C81.0902 167.08 80.9572 167.48 80.7727 167.842C80.5998 168.959 80.3912 170.166 79.7248 171.11C79.39 172.327 78.6191 173.559 77.2919 173.755C76.5138 174.675 75.0307 175.215 73.9741 174.437C73.318 174.706 72.5698 174.754 71.9071 174.487C71.8623 174.604 71.8156 174.72 71.7661 174.835C71.7424 174.89 71.717 174.943 71.6904 174.996C72.8272 177.422 73.6536 179.979 74.0118 182.637C74.2874 184.526 74.7749 186.523 74.1402 188.385C73.9844 189.748 73.6196 191.446 72.1672 191.95C72.1453 191.977 72.1225 192.004 72.0992 192.03C71.6556 192.53 70.8975 192.661 70.2714 192.464C69.8899 192.623 69.4985 192.634 69.1227 192.535C68.5002 192.722 67.8244 192.695 67.2478 192.363V192.362Z" fill="#F5E5D6"/>
<path d="M122.759 180.741C120.503 177.635 119.882 173.815 118.913 170.189C118.539 168.719 116.996 166.574 118.654 165.457C117.894 162.488 117.302 162.889 119.654 160.537C122.319 157.749 124.505 154.56 127.065 151.684C128.11 150.37 129.643 149.361 130.223 147.739C130.463 146.427 132.07 146.262 132.721 147.378C133.577 148.598 134.893 149.358 135.741 150.584C136.098 150.927 136.377 151.329 136.679 151.714C137.102 151.985 137.494 152.334 137.646 152.834C137.939 153.768 137.353 154.755 137.107 155.651C136.186 157.088 134.779 158.149 133.687 159.458C133.736 159.4 133.759 159.372 133.802 159.322C131.479 161.936 129.212 164.715 126.581 167.013C125.444 167.842 124.202 168.385 123.012 169.09C125.656 169.152 127.199 175.456 126.755 177.591C126.464 178.91 125.822 181.766 124.189 181.824C123.507 181.824 122.964 181.368 122.759 180.741V180.741Z" fill="#F5E5D6"/>
<path d="M44.4771 55.0599C44.5031 54.9834 44.5293 54.9072 44.5559 54.8311C44.5 54.8541 44.4438 54.8768 44.3875 54.8998C44.3574 54.9118 44.3271 54.9245 44.2972 54.9365C44.3593 54.9739 44.4192 55.0151 44.4771 55.0599ZM67.78 88.0191C67.7815 88.1278 67.7827 88.2364 67.7838 88.3451C67.8136 88.1965 67.8444 88.0483 67.8757 87.9002C68.0311 87.1698 68.1801 86.4393 68.3329 85.7084C68.3053 85.7229 68.2768 85.7368 68.2488 85.7491C67.9837 86.5023 67.6335 87.2006 67.78 88.0191ZM123.833 90.5517C124.254 89.9768 124.674 89.4011 125.104 88.8315C124.981 88.376 124.864 87.9183 124.748 87.4578C124.717 88.5821 123.626 89.3401 123.833 90.5517ZM115.378 98.4319C115.67 98.1574 115.962 97.8842 116.255 97.6121C116.25 97.5714 116.245 97.5298 116.242 97.4886C115.954 97.803 115.666 98.117 115.378 98.4318V98.4319ZM70.8293 108.01C70.9686 107.78 71.109 107.552 71.2464 107.321C71.345 107.155 71.4421 106.987 71.5387 106.82C71.3598 107.015 71.1796 107.21 70.9993 107.405C70.9334 107.481 70.8668 107.557 70.7996 107.632V107.632C70.8088 107.759 70.8189 107.884 70.8293 108.01V108.01ZM43.2097 110.573C43.2289 110.487 43.2544 110.402 43.2868 110.319C43.1844 110.177 43.0821 110.034 42.9799 109.892C43.0056 110.084 43.0242 110.277 43.0355 110.471C43.0939 110.505 43.1518 110.539 43.2097 110.573ZM73.1461 124.391C73.1512 124.434 73.1562 124.477 73.1609 124.52C73.204 124.208 73.2595 123.898 73.3221 123.59C73.2337 123.623 73.1436 123.652 73.054 123.682C73.0857 123.918 73.1166 124.155 73.1461 124.391ZM78.0956 134.343C78.1207 134.208 78.1473 134.073 78.1749 133.938C78.1108 134.057 78.0474 134.176 77.9847 134.296C78.0216 134.311 78.0587 134.328 78.0956 134.343ZM88.2376 137.053C88.2619 137.035 88.2866 137.017 88.311 136.998C88.304 136.779 88.2984 136.561 88.2905 136.345C88.2895 136.323 88.2891 136.302 88.2885 136.28C88.2545 136.398 88.22 136.515 88.1854 136.632C88.2172 136.772 88.2353 136.912 88.2376 137.053ZM81.9056 142.077C81.5529 141.986 81.2526 141.791 81.0248 141.535C80.1282 141.722 78.8397 141.993 78.0138 141.714C77.6219 141.617 77.1843 141.584 76.8155 141.426C75.5747 142.143 74.5447 141.061 73.7362 140.228C71.7381 138.563 70.4595 136.179 68.1391 134.883C67.2627 134.412 66.458 133.878 65.7304 133.197C65.1542 133.126 64.5989 132.917 64.1195 132.585C61.991 131.076 60.2346 129.872 58.0879 128.459C56.4419 127.272 54.539 125.89 53.1235 124.657C51.6973 123.161 50.106 121.823 48.5275 120.502C47.1294 120.379 45.9495 119.616 44.6214 119.275C43.8075 119.014 42.8533 118.679 42.4854 117.84C40.6651 119.316 38.7007 120.941 36.3536 121.382C33.2879 122.21 29.9589 122.849 26.8483 121.896C22.4219 120.181 17.8311 113.861 16.9677 109.25C16.8176 107.514 16.9401 105.557 18.0245 104.124C19.7955 101.391 23.7005 98.8985 26.777 101.082C26.859 100.995 26.9493 100.918 27.0459 100.848C27.2055 98.8527 27.6949 97.1326 28.0228 95.2487C28.1848 94.2141 28.5043 92.8877 29.7229 92.701C29.7899 90.7273 30.1783 88.8002 30.0509 86.8174C30.2848 84.7733 29.5933 81.2944 32.183 80.6277C33.9318 75.5499 36.9027 71.0631 39.0307 66.173C39.479 64.2973 38.3793 62.4508 37.3786 60.9376C36.3049 60.2236 35.4594 59.1932 34.2536 58.6763C33.172 58.3166 32.249 57.6154 31.1118 57.4195C31.1225 57.4401 31.2099 57.4381 31.2052 57.4541C31.1365 57.4364 31.0745 57.4121 30.9933 57.3813C30.346 57.1479 29.7711 57.0504 29.3583 56.5129C28.5164 55.5051 29.2 53.7397 30.5356 53.6355C31.152 53.582 31.7722 53.5845 32.3852 53.5002C35.209 52.8825 38.2573 52.8681 41.0666 52.2821C44.3486 51.3101 47.3312 49.4241 50.2872 47.7726C54.756 44.6672 59.1327 41.3919 63.7672 38.5665C66.8946 36.3459 70.0948 34.2249 73.9473 33.5759C75.6788 33.1825 77.4832 32.3829 79.2717 32.7529C80.8744 32.0318 82.5508 31.9343 84.2802 31.9302C88.339 31.701 92.3714 32.0018 96.3509 32.7957C100.501 33.289 104.965 33.8315 108.854 35.2981C110.37 35.7499 111.817 36.4199 113.015 37.466C114.081 37.7602 114.892 38.5726 115.672 39.287C117.086 40.2882 118.61 41.0397 119.608 42.4219C120.303 43.4742 121.592 44.4339 121.364 45.8298C122.498 47.431 123.245 49.3467 124.173 51.0841C125.024 53.2586 126.385 55.1228 126.315 57.331C127.613 58.3183 127.377 60.3042 127.853 61.7376C128.667 65.1351 129.318 68.5545 129.237 72.0496C129.878 71.8113 130.617 71.9644 131.12 72.4397C133.473 71.915 133.51 74.8479 134.134 76.3611C135.74 76.6421 135.802 78.7754 136.119 79.9845C136.18 80.2787 136.288 80.8067 136.355 81.1376C137.464 81.4023 137.724 82.545 137.771 83.5281C137.836 84.0223 137.942 84.5458 137.711 85.0199C137.56 85.8322 137.738 86.7709 137.353 87.5363C137.484 88.4914 137.826 89.5519 137.411 90.4741C137.849 90.9404 137.848 91.607 138.005 92.1824C138.242 92.147 138.488 92.1597 138.74 92.2298C139.538 92.4524 139.99 93.1364 140.14 93.8948C142.957 96.4746 136.171 104.026 133.096 102.308C131.896 103.895 130.811 105.591 129.398 106.998C129.475 107.96 128.762 108.67 128.14 109.316C126.658 110.761 125.331 111.847 123.715 113.036C121.562 115.049 119.633 118.041 116.655 118.756C116.491 118.898 116.326 119.042 116.161 119.183C114.911 120.285 113.634 121.361 112.328 122.402C112.555 123.954 110.866 124.516 109.783 125.141C108.765 125.688 107.809 126.34 106.901 127.051C105.116 128.326 103.519 129.829 101.73 131.094C100.682 131.764 99.6033 132.342 98.6694 133.187C97.3965 134.013 96.4028 135.675 94.7969 135.761L94.7016 135.814C94.6631 135.834 94.6245 135.854 94.5858 135.873C94.539 137.47 93.2539 140.561 91.5323 140.918C90.8232 141.259 89.9206 141.169 89.3266 140.631C87.1066 141.811 84.4109 142.343 81.9056 142.077V142.077Z" fill="#F5E5D6"/>
<path d="M67.2439 185.772C64.2779 185.707 62.7099 182.184 66.4509 181.85C66.1417 180.264 65.607 178.612 64.8347 177.185C64.1093 176.264 62.9579 175.885 61.9174 175.441C60.4376 174.701 58.1929 172.917 59.6321 171.2C60.504 170.232 61.958 170.594 62.638 171.579C64.187 172.843 66.4592 173.159 67.6495 174.95C68.4532 175.993 68.8549 177.247 69.2322 178.49C69.9041 180.082 70.2395 181.759 69.8798 183.47C70.203 184.992 68.6527 186.074 67.2439 185.772V185.772Z" fill="#F5E5D6"/>
<path d="M113.725 20.3554C113.775 20.3813 113.824 20.4109 113.87 20.4443C113.84 20.3851 113.808 20.3254 113.775 20.2694C113.758 20.2994 113.741 20.3254 113.725 20.3555V20.3554ZM24.0161 98.9989C24.0291 99.0018 24.0458 99.0084 24.059 99.0117C24.0619 99.0137 24.0652 99.015 24.0689 99.0166C24.0133 98.9989 23.9634 98.9808 23.9302 98.9689C23.917 98.964 23.9054 98.9607 23.8927 98.9558H23.8941C23.9137 98.9624 23.9302 98.9689 23.9502 98.9759C22.0374 98.1821 21.4305 95.8648 19.712 94.7978C16.2194 92.4801 13.2416 89.5603 10.2632 86.6731C8.79916 85.2937 7.32494 84.2068 6.30563 82.4784C2.92189 76.1776 2.53293 67.9237 5.93297 61.5665C7.09057 58.9529 9.1584 56.9611 11.1242 54.9657C13.215 52.3484 15.8567 50.3275 18.4161 48.1974C17.908 43.7957 17.2187 39.3311 18.3368 34.9657C18.6534 33.8069 18.2312 32.1974 19.4253 31.4793C21.0578 27.6575 23.8018 24.276 27.1457 21.8431C28.5771 20.9249 30.2096 20.3489 31.5917 19.3414C36.1858 16.3056 41.1326 13.7677 46.0534 11.3081C48.84 9.83322 51.7029 7.86824 54.7569 7.16366C55.9178 6.19537 57.3425 5.54389 58.8132 5.20112C61.445 4.62499 64.1922 4.6217 66.8768 4.79329C68.9315 4.2925 70.9666 4.04556 73.0872 4.13777C76.926 3.86167 80.7119 3.21633 84.5607 3.07154C88.3371 2.99872 92.1793 3.79256 95.8137 4.68103C97.3735 5.03004 98.9136 5.60322 100.47 5.87283C100.992 5.80415 101.523 5.97203 101.915 6.31724C104.675 7.37074 107.986 8.181 110.354 9.88598C114.365 12.4016 116.136 17.0992 118.171 21.0798C118.92 22.6464 120.024 24.0654 120.522 25.7411C121.228 28.7502 121.33 31.9535 120.987 35.0185C120.657 35.9535 120.78 36.8955 120.911 37.8629C121.301 38.4819 121.079 39.1921 121.225 39.8641C121.178 40.0217 121.131 40.1789 121.083 40.3353C120.905 40.9115 120.724 41.4843 120.598 42.0736C120.556 42.2683 120.515 42.4629 120.476 42.6583C119.616 43.1333 118.433 42.9258 117.924 41.5604C117.765 40.26 116.627 39.4366 115.546 38.923C111.341 38.0509 107.406 35.4333 103.3 34.1757C101.493 33.5436 99.8274 32.9876 98.0001 32.5263C94.3723 32.0428 90.728 32.1213 87.0837 32.1975C85.6194 32.2268 84.152 32.2568 82.6876 32.2535C80.4615 32.5234 78.2285 32.7897 75.9894 32.8983C75.2441 32.9909 74.3765 33.1951 73.7138 32.7567C73.5882 32.7567 73.4629 32.7502 73.3444 32.7275C73.1133 32.6842 72.9023 32.6156 72.7079 32.5069C66.7086 33.7645 61.6827 37.2971 57.0292 41.0435C54.3147 43.46 51.5741 46.2583 48.6125 48.2666C45.8256 50.2649 42.5606 51.5225 39.2067 52.1739C36.0537 54.0674 32.8414 54.8015 29.2765 54.9497C31.2584 56.2859 33.0329 57.8962 34.8928 59.3843C36.2451 60.4246 37.3827 61.8073 38.1248 63.341C38.4843 64.4245 38.3427 65.5406 38.072 66.604C37.02 69.2805 35.1071 71.6608 33.7813 74.0805C32.2148 77.2213 31.1594 80.7604 30.81 84.2271C30.7078 86.9892 30.7966 89.7579 30.5658 92.5167C30.4505 93.5044 30.3217 94.3204 29.7347 95.0847C28.9137 95.7987 28.2805 96.6221 27.6374 97.4941C26.745 98.0875 25.6449 99.0686 24.5208 99.0694C24.3527 99.0694 24.1846 99.0467 24.0161 98.999V98.9989Z" fill="#735353"/>
<path d="M24.0693 99.0166C24.0746 99.0183 24.0803 99.0204 24.086 99.0217C24.0788 99.0204 24.0736 99.0183 24.0693 99.0166Z" fill="#735353"/>
<path d="M23.8843 98.9529C23.8878 98.9543 23.891 98.9548 23.894 98.9561C23.8905 98.9561 23.8873 98.9556 23.8843 98.9529Z" fill="#735353"/>
<path d="M39.9693 66.1949C40.1373 67.4652 39.4975 68.6306 39.0492 69.7862C37.7231 73.1179 35.6357 76.0746 34.244 79.3636C33.6435 80.822 33.1589 82.2969 32.7895 83.8278C32.3014 84.934 32.6475 87.5837 30.9987 87.5019C29.3035 87.2875 30.4546 83.3471 30.5205 82.1488C31.2362 77.9014 33.3007 74.3689 35.4904 70.7804C36.2063 69.4109 37.1132 68.1631 37.6739 66.715C37.7398 65.7505 37.7827 64.7755 37.7992 63.8081C37.6671 62.7772 36.8788 61.8492 36.1964 61.1118C34.3856 59.3665 32.3243 57.9019 30.3061 56.4069C30.0456 56.5056 29.742 56.3048 29.7323 56.0254C28.7525 52.9797 36.9316 59.3534 37.4494 59.9295C38.2642 60.6114 38.8546 61.5196 39.4018 62.3991C39.9922 63.6007 39.8967 64.904 39.9693 66.195V66.1949Z" fill="black"/>
<path d="M86.8735 32.213C86.9294 32.6405 86.6194 33.0685 86.1843 33.1179C76.0957 33.9974 68.0815 34.7443 59.7969 41.3027C54.8068 45.5064 49.6949 50.0006 43.5244 52.285C41.8525 52.8117 40.1835 53.5826 38.4819 53.069L38.4586 53.0624C37.7034 52.8451 37.1295 52.3085 36.5062 51.8636C36.2162 52.2356 35.5731 51.9035 35.6982 51.4488C35.4278 50.6821 36.3908 50.3858 36.9847 50.5599C37.7366 50.7315 38.3333 51.3928 39.138 51.3668C40.8895 51.0145 42.4428 50.2574 44.0655 49.5623C49.3489 46.8792 53.6824 42.7841 58.1018 38.9747C64.9748 33.4405 73.8594 31.0508 82.596 31.4557C83.8394 31.4422 84.8651 31.4883 86.0754 31.5216C86.4743 31.531 86.8175 31.8142 86.8735 32.2129V32.213Z" fill="black"/>
<path d="M62.2842 84.0933C62.0736 84.0184 61.8881 83.9007 61.7312 83.7546C61.22 83.6101 60.7907 83.4846 60.2888 83.3365C58.9182 82.8641 58.1224 81.5542 57.126 80.5875C53.964 78.055 51.7282 74.1699 51.5391 70.046C51.547 70.1426 51.5513 70.2414 51.5591 70.3386C51.1537 67.3065 53.7198 66.0032 56.1267 65.0871C60.1066 63.346 64.4224 62.46 68.4958 60.9542C69.5904 59.8118 71.4607 59.725 72.8247 59.2966C75.0018 58.8229 81.0668 57.0163 80.3868 61.0398C80.9646 62.9386 81.58 64.9349 82.2749 66.7624C83.1926 68.7208 83.6178 70.9357 83.7248 73.0875C83.5515 75.0571 83.8299 77.2167 82.1479 78.4044C80.8374 78.9254 79.3665 78.9579 78.0353 79.4979C76.1557 79.937 74.1812 80.8382 72.3656 81.181C72.377 81.1786 72.3885 81.1769 72.3998 81.1744C72.4017 81.1744 72.4035 81.174 72.4058 81.1736C70.226 81.6081 68.2058 82.6456 66.1297 83.4185C64.9348 83.9588 63.6006 84.5675 62.2842 84.0934V84.0933ZM79.2756 68.9662C79.3044 68.9826 79.3325 69.0007 79.3605 69.0197C79.3306 68.9473 79.2984 68.8765 79.2642 68.8057C79.1956 68.6707 79.1298 68.5366 79.0682 68.4012C78.9952 68.5155 78.9177 68.6279 78.8369 68.7423C78.8281 68.7546 78.8192 68.7674 78.8104 68.7793C78.9697 68.8176 79.1251 68.8789 79.2756 68.9662Z" fill="white"/>
<path d="M113.687 67.1452C113.664 67.016 113.64 66.8879 113.614 66.7592C113.614 66.7583 113.613 66.7567 113.613 66.7559C113.585 66.7801 113.555 66.8036 113.524 66.825C113.518 66.8287 113.513 66.8324 113.507 66.8361C113.569 66.9312 113.622 67.0324 113.664 67.1373C113.672 67.1393 113.68 67.1419 113.687 67.1452ZM105.104 72.6817C104.234 72.7052 103.496 72.2973 102.863 71.7283C102.344 71.5036 101.823 71.2888 101.367 70.9464C101.425 70.9838 101.481 71.0221 101.536 71.0596C101.551 71.0695 101.566 71.0798 101.581 71.09C101.265 70.8855 100.955 70.6571 100.654 70.4291C99.7304 69.7415 98.4803 69.6016 97.6051 68.8629C94.9116 69.3172 94.0076 65.2855 94.0754 63.2583C93.8833 61.3089 93.0946 57.1266 96.2158 57.4719C96.1982 57.4724 96.1809 57.4736 96.163 57.4748C96.144 57.4757 96.1249 57.4768 96.107 57.4781C96.1603 57.4744 96.209 57.4736 96.26 57.4682C96.2715 57.4674 96.2827 57.467 96.26 57.4682C97.3927 56.5839 98.9314 56.7291 100.286 56.5402C101.829 56.3929 103.577 56.3842 105.063 56.2917C107.951 56.4419 116.055 53.5427 116.456 57.748C116.635 59.0505 116.398 60.3209 116.423 61.6065C116.769 62.8176 116.877 64.0575 116.973 65.3081C117.307 67.1139 117.792 68.8917 117.277 70.6303C115.888 73.0299 111.695 72.8035 109.348 72.797C107.933 72.5863 106.473 73.0093 105.104 72.6817H105.104Z" fill="white"/>
<path d="M157.18 209.901C158.717 212.015 158.78 214.751 157.315 216.924C153.124 222.385 145.525 223.166 139.144 222.843C138.095 222.82 127.083 222.619 124.88 221.217C124.672 221.687 124.454 222.145 124.236 222.593C122.812 224.67 120.602 225.928 118.412 227.063C116.578 228.058 114.471 228.295 112.44 228.634C108.386 229.279 104.297 229.51 100.191 229.43C94.1127 229.579 88.0276 229.75 81.9463 229.829C76.1054 229.615 70.2351 229.898 64.6547 227.999C60.3675 226.849 55.5458 224.348 56.2646 219.13C56.6737 216.996 57.8742 215.159 59.3022 213.563C61.2909 210.86 64.028 208.611 67.1647 207.379C67.1843 207.192 67.2108 207.004 67.2801 206.82C68.6749 204.483 67.7847 201.842 67.4219 199.36C67.3328 199.136 67.2931 198.886 67.3131 198.646C67.0952 198.715 66.8775 198.777 66.6599 198.833C66.4655 198.906 66.241 198.975 66.0664 198.794C65.7399 198.425 66.1355 198.03 66.4917 198.02C70.5647 195.936 74.6938 193.967 79.0243 192.449C87.6187 189.167 96.6719 187.317 105.834 186.606C111.45 185.98 117.017 185.299 122.647 185.915C122.776 185.921 122.907 185.924 123.039 185.934C122.72 185.26 122.815 184.367 122.489 183.683C121.677 181.49 120.8 179.324 119.86 177.18C118.808 174.665 118.831 171.936 117.98 169.401C117.146 166.043 115.87 162.57 114.253 159.558C112.687 156.216 111.417 152.707 109.389 149.599C108.799 148.591 107.783 147.755 107.691 146.569C108.089 145.763 108.677 146.583 108.97 146.978C111.899 150.073 113.92 154.016 115.836 157.773C116.47 158.985 117.031 160.232 117.535 161.503C117.571 161.47 117.608 161.44 117.64 161.414C118.623 160.367 119.751 159.491 120.761 158.491C123.63 155.755 125.101 152.064 127.146 148.792C128.623 146.369 130.084 143.89 130.523 141.095C130.658 140.394 130.519 139.422 130.529 138.537C129.183 138.501 127.811 138.498 126.483 138.412C126.489 138.412 126.496 138.415 126.502 138.415C123.188 138.274 119.887 137.793 116.635 137.131C113.98 136.476 111.332 135.538 108.597 135.387C107.252 135.222 105.824 135.591 104.518 135.248C103.908 134.873 104.577 134.01 105.128 134.412C108.855 133.582 112.624 133.256 116.381 134.036C119.952 134.695 123.428 135.077 126.941 135.929C126.957 135.936 126.97 135.936 126.987 135.939C127.03 135.949 127.066 135.959 127.103 135.966C128.207 136.16 129.263 136.107 130.368 136.09C131.166 136.038 132.231 135.851 132.778 136.499C134.662 137.398 133.385 141.407 131.446 145.47C132.544 145.865 133.385 147.018 134.401 147.593C136.067 148.934 137.583 150.343 138.557 152.225C138.998 152.917 139.084 154.455 138.075 154.54C138.072 154.563 138.069 154.586 138.065 154.606C137.524 157.072 135.971 159.162 134.318 160.966C131.769 164.242 128.774 167.195 125.203 169.322C128.619 171.745 129.002 176.683 126.994 180.101C126.641 180.716 125.777 182.517 124.926 181.786C124.751 181.562 124.807 181.26 125.015 181.081C125.612 180.522 125.942 179.739 126.242 178.995C126.644 177.918 126.921 176.628 126.614 175.521C126.39 174.303 126.186 173.174 125.358 172.256C124.84 171.683 124.296 171.251 123.669 170.827C123 170.369 122.037 169.967 122.36 169.052C122.621 168.371 123.379 168.644 123.847 168.298C126.918 166.691 129.675 164.426 131.644 161.592C133.382 159.189 136.146 157.444 137.125 154.56C137.228 154.303 137.28 154.04 137.333 153.777C137.316 153.661 137.306 153.542 137.29 153.427C136.66 152.414 136.007 151.435 135.143 150.609C134.559 150.22 134.147 149.733 133.57 149.348C132.699 148.861 131.842 148.199 131.222 147.455C131.05 147.297 130.866 147.152 130.671 147.027C128.857 150.557 126.776 153.826 126.12 154.771C124.26 157.532 121.974 160.011 119.21 161.875C118.9 162.066 118.429 162.461 117.974 162.655C118.838 165.012 119.524 167.439 120.107 169.872C120.665 172.272 120.566 174.872 121.69 177.111C122.782 179.943 125.206 182.333 125.431 185.427C125.437 185.74 125.318 186.02 125.127 186.234C125.833 186.224 126.443 186.846 126.713 187.455C127.413 188.614 127.159 190.043 127.129 191.33C127.429 191.564 127.624 191.942 127.96 192.127C128.296 192.213 128.649 192.262 128.88 192.564C129.632 193.621 128.105 194.389 127.99 195.353C129.24 197.144 131.895 198.343 131.977 200.749C131.974 200.785 131.967 200.821 131.961 200.854C135.875 200.384 140.011 201.012 143.688 202.092C146.264 202.836 149.018 203.129 151.353 204.542C153.829 205.816 155.845 207.554 157.18 209.901V209.901ZM153.012 218.422C155.327 217.194 158.044 214.149 155.927 211.65C151.148 206.672 144.087 205.147 137.57 203.738C135.133 203.37 132.713 203.208 130.285 203.152C127.653 203.403 125.341 204.792 123.217 206.244C122.515 206.715 121.803 207.169 121.084 207.617C121.559 207.943 122.017 208.302 122.459 208.687C124.933 210.366 125.918 213.174 126.07 216.051C126.156 217.461 125.81 218.853 125.305 220.18C125.612 220.19 125.912 220.278 125.922 220.512C129.946 220.96 133.949 221.434 138.009 221.362C143.105 221.378 148.553 221.108 153.012 218.421V218.422ZM127.868 201.81C123.93 201.319 119.563 201.938 116.414 204.397C116.156 204.601 116.018 204.921 116.061 205.243C116.061 205.247 116.064 205.247 116.064 205.247C116.068 205.259 116.091 205.266 116.1 205.273C116.102 205.275 116.105 205.276 116.107 205.276C117.456 205.674 118.755 206.214 119.976 206.919C121.341 205.783 122.766 204.717 124.23 203.709C125.368 202.896 126.588 202.274 127.868 201.81V201.81ZM122.568 221.859C123.422 220.117 123.109 218.063 122.68 216.262C122.33 215.024 122.324 213.595 121.42 212.594C119.111 210.093 115.998 208.723 112.68 208.17C112.687 208.173 112.697 208.173 112.707 208.177C109.982 207.676 107.182 207.376 104.448 207.143C103.248 207.057 102.137 207.001 100.986 206.913C98.0703 208.335 95.2503 209.964 92.879 212.193C91.0915 213.641 89.9372 215.998 87.7143 216.829C86.9789 216.717 86.3457 216.299 85.6465 216.058C83.7567 215.426 81.6955 215.488 79.7562 215.205C75.4591 215.008 71.0924 215.248 66.9798 216.538C66.5809 216.575 66.0961 217.167 65.7727 216.717C65.5915 216.401 65.9378 216.147 66.1984 216.045C66.927 215.653 67.6825 215.31 68.454 215.017C68.1803 214.086 69.0872 211.89 70.1986 210.099C68.5067 210.254 66.8182 210.435 65.1329 210.573C64.9484 210.52 64.8 210.343 64.8031 210.145C64.8891 209.526 65.796 209.54 66.2443 209.256C66.2017 209.052 66.2643 208.904 66.3731 208.782C64.0313 210.182 62.033 212.173 60.387 214.284C59.2723 215.594 58.1609 217.006 57.686 218.659C57.5707 219.073 57.5015 219.469 57.4683 219.844C57.8313 219.531 58.2137 219.268 58.3786 219.159C59.1472 218.599 63.9029 216.469 63.0455 218.794C62.8839 219.024 62.5967 219.05 62.3428 219.1C60.9776 219.357 59.6584 219.772 58.3953 220.338C58.1016 220.43 57.8047 220.766 57.5048 221.006C58.1708 225.289 64.8495 226.224 68.5927 227.192C72.8239 227.811 77.1178 227.515 81.336 227.847C88.0114 228.141 94.6698 227.515 101.328 227.594C104.544 227.488 107.72 227.449 110.85 226.83C113.291 226.533 115.606 226.379 117.753 225.296C119.59 224.463 121.202 223.304 122.568 221.859ZM98.654 205.658C98.6573 205.658 98.6606 205.655 98.6639 205.655C96.8731 205.473 95.0823 205.371 93.2717 205.378C91.2896 205.392 89.2646 205.694 87.3944 206.356C87.3878 206.353 87.3847 206.356 87.3814 206.362C86.4974 206.807 85.663 207.347 84.9013 208.002C82.9786 209.757 81.3164 211.735 79.4596 213.536C79.5586 213.579 79.6179 213.661 79.6441 213.75C80.2839 213.793 80.9204 213.852 81.5536 213.922C83.6446 213.974 85.6993 214.201 87.543 215.189C88.6048 214.221 89.3273 212.983 90.1617 211.834C92.5956 209.213 95.4086 207.123 98.654 205.658ZM78.3744 213.675C78.1338 212.703 79.0441 211.159 79.8686 209.947C77.0752 209.645 74.2752 209.76 71.4785 209.987C70.6273 211.403 70.0832 213.043 69.6578 214.603C71.3035 214.086 73.0186 213.786 74.7433 213.697C75.9503 213.622 77.164 213.622 78.3744 213.675ZM68.441 208.302C68.4344 208.272 68.4311 208.239 68.4278 208.206C68.4212 208.243 68.4111 208.275 68.3979 208.308C68.4111 208.305 68.4278 208.305 68.441 208.302Z" fill="black"/>
<path d="M141.093 91.6499C141.66 92.4594 141.739 93.5722 141.646 94.5005C141.564 96.8022 140.951 99.0178 139.321 100.657C138.187 101.711 136.617 102.168 135.156 102.498C134.928 102.504 134.632 102.504 134.45 102.366C128.28 112.032 118.478 121.059 110.167 127.054C106.048 130.139 101.919 133.138 97.2586 135.327C96.2066 135.726 95.2965 136.387 94.2939 136.888C92.2457 137.615 90.1681 138.508 87.9617 138.379L87.9714 138.382C87.5396 138.458 87.3681 137.823 87.7969 137.697C87.9024 137.671 88.0508 137.707 88.1363 137.685C89.6007 137.533 91.019 136.947 92.3611 136.44C93.5583 136.022 94.5708 135.33 95.6162 134.649C99.4749 132.759 102.767 130.023 106.055 127.314C108.792 125.421 111.47 123.488 113.976 121.296C117.624 118.439 121.225 115.426 124.332 111.989C126.618 109.178 129.263 106.656 131.113 103.518C132.963 101.085 134.85 98.6718 136.027 95.8734C136.024 95.8734 136.024 95.8767 136.02 95.88C136.37 95.1035 136.766 94.2244 137.062 93.4377C137.052 93.3883 137.049 93.3323 137.049 93.2796C137.049 93.2665 137.049 93.2562 137.052 93.2463V93.2336C137.056 93.1969 137.056 93.171 137.059 93.1344C137.112 92.3315 137.587 91.0673 137.435 90.1483C137.201 87.3928 137.112 84.5615 136.356 81.8919C135.344 79.2549 134.134 76.7195 132.125 74.7541C131.568 74.1487 130.928 73.5726 130.572 72.8216C129.949 72.127 129.118 71.673 128.537 70.9615C128.069 69.948 128.257 68.8385 128.115 67.8175C128.062 65.8228 127.934 63.9463 127.495 62.05C127.145 60.2524 126.426 58.5076 125.783 56.8154C125.467 55.8771 125.219 54.9056 124.784 54.0368C123.705 51.7451 122.973 49.2829 121.677 47.0997C121.176 46.0203 120.236 45.3088 119.537 44.3973C119.256 43.8998 118.887 43.4887 118.514 43.0771C117.802 42.2142 117.096 41.3055 116.351 40.4994C115.939 39.8738 115.24 39.5512 114.771 38.9751C114.458 38.629 114.016 38.0364 114.339 37.5924C114.596 37.3389 115.091 37.543 115.038 37.8982C115.065 37.9644 115.091 38.0332 115.127 38.0957C115.685 38.8072 116.526 39.1232 117.096 39.8047C118.036 40.6866 118.837 41.6809 119.725 42.6064C119.738 42.5303 119.754 42.4611 119.768 42.4117C120.49 38.5137 120.727 34.3957 120.275 30.4709C119.778 26.6458 117.871 23.1294 115.846 19.8936C113.482 16.3643 111.457 12.3837 107.822 10.0166C99.2871 5.4405 89.1688 4.11377 79.6211 4.39687C61.736 3.73224 46.1395 9.56928 31.7604 19.9294C18.2353 30.1817 19.5444 31.0405 18.3937 47.2578C18.3308 48.3347 18.3573 49.6055 17.5494 50.389C15.5606 51.9952 13.7203 53.7466 11.8865 55.5277C8.94487 58.0401 6.00303 60.9932 5.16203 64.9038V64.9071C5.16203 64.9137 5.15874 64.917 5.15874 64.924C3.68123 73.3059 5.8676 79.9853 11.9953 85.8322C13.3145 87.3865 14.5282 88.9997 16.1213 90.2503C16.7149 90.9091 18.3937 91.7779 19.1223 92.7293C19.67 93.1149 20.1943 93.5096 20.666 93.8882C21.4179 94.5931 21.9685 95.1561 22.6973 95.7746C24.2641 97.3289 25.8172 98.9976 27.4632 100.423C28.2316 101.161 27.1235 102.399 26.3023 101.707C26.167 101.612 26.0349 101.513 25.8999 101.411C25.4777 101.905 24.4587 101.609 23.8815 101.783C22.8328 101.958 21.84 102.379 21.012 102.882C19.5248 104.009 18.0076 105.368 17.6877 107.304C17.5724 108.661 16.9096 110.145 17.6681 111.409C18.1793 112.95 19.4424 114.046 20.257 115.376C20.4283 115.794 20.7616 116.288 20.9692 116.63C21.3221 117.345 22.1169 117.915 22.681 118.382C23.2217 118.883 23.8153 119.31 24.4587 119.663C25.5668 120.364 26.8365 121.052 28.1063 121.345C30.1675 121.668 32.1166 121.829 34.1779 121.644C35.5993 121.441 36.9018 120.871 38.1683 120.262C39.7185 119.432 40.4802 117.658 42.037 116.881C42.6637 116.683 43.1616 116.766 43.5211 117.012C43.9035 117.203 44.2698 117.516 44.6521 117.661C45.1009 117.872 45.6187 118.033 46.0274 118.267C46.6573 118.55 47.0137 118.793 47.5249 119.103C47.5282 119.106 47.5348 119.11 47.5381 119.11C47.5577 119.123 47.5777 119.136 47.5973 119.149C47.6039 119.152 47.6072 119.156 47.6137 119.162H47.617C47.6338 119.172 47.6501 119.186 47.6665 119.199C49.3223 120.348 50.4734 122.007 52.0924 123.199C54.9485 125.576 57.8773 127.646 60.8025 129.895C62.7254 131.419 64.5097 133.342 66.9502 133.991C67.7846 134.224 68.7872 134.405 69.5787 134.695C70.6239 134.876 71.7092 135.08 72.7118 135.287C74.0869 135.614 75.3963 135.857 76.7417 136.163C77.1839 136.269 77.0518 136.993 76.5867 136.914C74.5586 136.657 72.5832 136.427 70.5712 136.235C70.2941 136.246 70.0041 136.235 69.717 136.213C69.9346 136.278 70.1558 136.351 70.3768 136.433C72.4974 137.454 73.7572 139.541 75.4621 141.049C77.4145 142.03 79.9078 141.721 82.068 141.691C85.0329 141.486 87.8364 140.835 90.7714 140.555C92.546 140.505 93.1627 139.617 93.7102 138.072C94.2145 136.894 96.0384 137.513 95.6989 138.761C94.9962 142.128 92.2228 143.33 89.0928 143.399C86.085 143.62 83.0772 143.758 80.0628 143.785C77.9358 143.633 75.3038 144.035 73.7208 142.346C73.7339 142.356 73.7474 142.369 73.7605 142.379C72.3292 141.043 71.3299 139.221 69.6642 138.145C68.7542 137.526 67.4578 137.372 66.663 136.615C66.5476 136.726 66.3992 136.812 66.2147 136.861C60.9707 138.589 56.3834 141.424 51.1954 143.196C49.4144 144.031 47.5082 144.657 45.7473 145.394C43.5113 146.751 41.1565 147.877 38.7786 148.95C38.8808 148.993 38.9831 149.039 39.0787 149.091C41.2123 150.082 43.3956 151.219 45.2755 152.611C47.3237 153.836 49.1935 155.238 50.757 156.973C52.9928 159.268 54.8891 161.856 56.6305 164.525C57.3035 164.729 57.9829 164.921 58.659 165.151C58.6722 165.157 58.6819 165.161 58.695 165.164C59.5626 165.519 60.4331 165.81 61.373 165.671C63.3288 164.242 65.9078 163.91 68.2395 164.029C69.272 164.282 70.2778 164.667 71.3233 164.898C73.2263 165.108 75.1521 165.47 77.0452 165.523C77.8105 165.424 78.4569 165.098 79.2185 164.98C79.3605 164.927 79.4958 164.93 79.6112 164.97C79.9606 164.785 80.4555 164.917 80.7455 165.168C82.223 166.132 81.7448 168.137 81.7943 169.638C81.692 174.155 76.8673 176.891 72.7248 176.559C72.9424 177.319 73.8857 180.631 72.9391 180.891C72.7677 180.891 72.6258 180.759 72.6062 180.595C72.3125 178.905 71.6199 177.147 70.614 175.805C70.2513 175.354 70.4986 174.629 71.0628 174.491C71.5639 174.448 72.0817 174.445 72.5865 174.353C74.199 174.086 75.8941 174.056 77.395 173.342C78.8626 172.627 79.6506 171.004 80.0301 169.51C80.1818 168.535 80.2277 167.686 80.0002 166.748C79.8685 166.557 79.6673 166.389 79.5024 166.211C79.1495 166.399 78.7702 166.537 78.4107 166.702C77.2399 167.304 75.8746 167.11 74.6081 167.192C73.1436 167.258 71.6826 167.139 70.2185 167.162C69.2487 167.222 68.6616 167.472 67.7547 167.33C66.0331 167.218 64.6152 167.235 62.986 167.597C61.6864 167.893 60.4036 168.548 59.0545 168.476C58.4479 168.45 57.9664 168.097 57.4253 167.88C56.7921 167.702 56.2051 167.458 55.6446 167.12C54.553 166.583 53.3622 166.079 52.5412 165.193C52.5245 165.177 52.5047 165.161 52.4884 165.144C52.0696 165.115 51.667 165.032 51.3537 164.753C50.8392 164.466 50.2917 164.308 49.7346 164.176C49.6324 164.176 49.5268 164.153 49.4246 164.104C49.0286 164.015 48.6298 163.929 48.2404 163.814C47.8943 163.686 47.6898 163.294 47.7393 162.938C47.9831 161.937 49.0978 162.207 50.071 162.392C50.6415 161.99 51.2383 161.618 51.9407 161.519C51.9473 161.513 51.9541 161.506 51.9607 161.506C50.6182 159.861 49.2001 158.274 47.6997 156.765C45.9518 155.324 44.0618 154.194 42.1492 153.055C41.9082 153.204 41.6182 153.305 41.3049 153.345C39.2236 153.852 37.3734 155.265 35.2528 155.525C33.8019 156.449 32.4627 157.71 31.0118 158.56C30.3553 159.202 26.5265 160.66 27.6281 161.638C30.3025 163.702 33.5513 164.861 36.7336 165.813C40.553 167.136 43.9662 169.27 47.7459 170.688C50.7042 171.462 53.7381 172.239 56.5316 173.411C57.3431 173.862 56.8976 175.202 55.9678 175.04C54.2592 174.484 52.6533 173.602 50.925 173.091C48.7353 172.469 46.4594 172.061 44.2698 171.452C42.4887 171.011 40.731 170.566 38.927 170.25C35.6653 169.171 32.2549 167.824 29.5143 165.744C26.7838 163.755 23.8153 161.305 27.6081 158.547C29.8641 157.025 31.49 154.728 34.0425 153.654C34.2107 153.125 34.6462 152.805 35.1506 152.601C34.9395 151.662 34.6295 150.714 35.0684 149.806C35.3254 149.372 35.6849 149.072 36.0938 148.891C36.1402 148.838 36.1994 148.792 36.2653 148.753C37.6045 147.659 38.7553 146.602 40.2363 145.769C45.7009 143.386 51.1426 140.861 56.5417 138.402C58.1014 137.526 59.8922 136.973 61.4291 136.179C62.5209 135.695 63.5497 135.221 64.6644 134.981C61.8251 133.483 59.7471 130.797 56.9869 129.114C54.2592 127.376 51.5386 125.582 49.2001 123.337C49.1935 123.33 49.1902 123.327 49.1836 123.323C48.4514 122.679 47.6997 122.036 46.8618 121.529C46.0703 120.973 45.2592 120.43 44.471 119.877C44.2599 119.765 44.0488 119.643 43.8443 119.508C43.6794 119.765 43.4552 119.992 43.1648 120.173C43.1946 120.147 43.2208 120.124 43.2441 120.104C42.1492 121.046 40.7772 121.507 39.4976 122.122C37.6639 122.81 35.7409 123.462 33.759 123.396C31.5857 123.314 29.3166 123.409 27.2059 122.942C26.2165 122.659 25.2335 122.178 24.2935 121.809C22.0049 120.752 19.7456 119.656 18.298 117.546C16.9588 115.36 14.347 113.974 13.8028 111.301C13.5717 108.19 14.205 104.703 16.2499 102.411C17.8987 100.522 20.6361 99.0242 23.1361 99.4323C22.9349 99.3003 22.7304 99.1722 22.5292 99.0533C20.016 97.7006 17.5031 96.229 15.8374 93.908C15.8341 93.9048 15.831 93.8982 15.8277 93.8949C15.7485 93.7793 15.6791 93.6673 15.6166 93.5521C12.81 92.0443 10.5606 89.5986 8.54898 87.1492C3.1831 81.875 0.314038 74.4511 1.30667 66.9713C1.42538 59.689 7.0318 54.8001 12.233 50.2902C10.6598 50.2042 9.31425 49.7862 7.87279 49.2894C7.45394 48.9635 7.38488 48.3606 7.70149 47.9392C8.07086 47.4424 8.69091 47.4391 9.25135 47.4223C10.409 47.3436 11.56 47.5243 12.6485 47.9198C12.2693 47.0436 11.9953 46.112 11.7449 45.2198C11.6292 44.7691 11.8865 44.2918 12.3451 44.1663C12.8002 44.0412 13.2719 44.3145 13.4004 44.7659C13.7731 45.9774 14.0304 47.2317 14.3105 48.4691C14.4558 48.3411 14.5976 48.2123 14.7392 48.0844C15.2902 42.6189 15.0923 37.0062 16.4016 31.6593V31.6564C17.9814 26.8263 21.7079 23.2313 25.649 20.2095C28.5713 17.7931 31.5657 15.4454 34.854 13.5391C47.7028 5.27262 62.6133 0.327755 77.9621 0.83849C83.9317 0.660744 90.0427 0.75244 95.8573 2.13193C101.005 3.30763 106.52 4.60436 110.754 7.72246C113.112 9.40806 114.827 11.7616 116.404 14.1521C118.168 17.0031 120.167 19.778 121.136 23.0241C123.297 29.5591 122.67 36.641 120.731 43.1525C120.704 43.248 120.651 43.334 120.582 43.3999C120.559 43.4427 120.536 43.5019 120.516 43.548C120.925 44.0155 121.42 44.3641 121.875 44.7954C122.64 45.6349 123.372 46.7279 123.874 47.706C127.64 54.4649 131.034 61.6649 130.846 69.5394C132.082 70.2933 133.362 70.8764 134.322 71.9991C135.037 72.6674 135.776 73.2666 136.169 74.0962C137.135 76.0843 137.923 77.9213 138.57 79.9658C138.998 81.8329 139.107 83.7024 139.275 85.5827C139.391 87.0836 139.536 88.6605 139.378 90.1753C140.093 90.4222 140.796 91.0374 141.093 91.6502L141.093 91.6499ZM138.25 100.081C139.849 98.5471 140.268 96.0808 139.935 93.9738C139.941 94.0038 139.945 94.0236 139.951 94.0462C139.919 93.4342 139.575 93.0523 139.114 92.8087C139.104 92.8708 139.094 92.9333 139.081 92.9894C138.101 95.8865 136.66 98.7972 134.895 101.655C134.975 101.645 135.054 101.642 135.133 101.651H135.136C135.898 101.305 136.68 101.19 137.326 100.657C137.636 100.512 138.032 100.331 138.25 100.081V100.081Z" fill="black"/>
<path d="M126.123 78.9454C126.855 82.2409 126.7 85.6083 125.803 88.8351C124.286 92.8976 121.704 96.4429 119.003 99.798C117.637 101.385 115.804 102.692 114.26 104.038C109.082 108.308 102.526 110.214 96.53 112.937C95.7684 113.358 94.9107 113.582 94.0402 113.618C93.5125 113.733 92.9783 113.793 92.4506 113.803C88.2389 113.694 83.9087 114.043 79.8124 113.098C75.3238 112.357 70.888 111.031 66.7558 109.125C64.4965 107.989 62.244 106.823 60.0378 105.642C58.5076 104.838 57.01 103.982 55.5292 103.093C53.8112 102.014 52.6503 100.568 51.2088 99.2841C50.6317 98.7808 49.9952 98.4253 49.4576 97.9178C49.2237 98.0166 48.9763 98.0693 48.7189 98.0598C47.8616 98.1158 47.0369 98.3199 46.186 98.3952C45.7638 98.5499 45.2628 98.4614 44.9789 98.096C43.409 97.3783 47.324 95.0668 47.835 94.3594C48.4981 93.8092 48.9827 93.0886 49.659 92.5548C50.4701 91.8508 51.6972 92.4302 51.8915 93.4277C51.9905 94.3424 51.7893 95.2873 51.341 96.0741L51.3443 96.0774C51.9082 96.7264 52.7129 97.1737 53.3363 97.7038C54.8531 98.9745 56.2317 100.285 57.6894 101.589C57.7059 101.602 57.7226 101.615 57.7389 101.632C61.3735 104.713 65.6411 107.107 70.1097 108.74C72.1415 109.332 74.1564 109.971 76.198 110.475C79.4991 111.018 82.8468 111.472 86.1974 111.475C88.196 111.455 90.2212 111.597 92.2195 111.465C92.4075 111.156 92.7307 110.919 93.1828 110.86C93.796 110.77 94.3797 110.84 94.9835 110.758C96.652 109.829 98.3606 109.217 100.211 108.765C103.608 107.232 107.328 106.517 110.464 104.473C113.267 102.939 115.596 100.756 117.848 98.5403C119.257 96.677 120.85 94.9518 121.941 92.8844C124.682 88.9535 124.801 83.7581 123.782 79.2346C123.59 79.0934 123.438 78.9087 123.283 78.7313C123.267 78.7148 123.251 78.6946 123.237 78.6786C123.227 78.6655 123.218 78.6556 123.208 78.6452L123.198 78.6354C123.191 78.6292 123.188 78.6226 123.185 78.6194L123.181 78.6161C123.171 78.6062 123.165 78.5992 123.158 78.5894L123.155 78.5861C122.782 78.1647 122.429 77.77 122.063 77.3585C121.47 77.3026 120.873 77.2993 120.279 77.3318C120.091 77.3285 119.923 77.2993 119.775 77.2499H119.771C119.029 77.2927 118.254 76.8186 118.231 75.8277C118.248 75.0635 118.713 74.6063 119.263 74.4581C119.3 74.4055 119.339 74.3528 119.379 74.3034C119.831 73.6746 120.704 73.4409 121.43 73.526C122.604 73.1247 123.996 73.4606 124.59 74.5893C124.801 74.9054 125.018 75.1823 125.104 75.5544C125.915 76.4959 127.142 77.714 126.123 78.9453V78.9454Z" fill="black"/>
<path d="M25.2041 57.2861C26.4079 58.1717 24.8182 59.5672 24.462 60.5421C23.5219 62.2804 22.5492 63.8833 21.9819 65.7471C21.9721 66.1417 21.484 66.4215 21.1605 66.1549C20.7879 65.8491 20.9826 65.3055 21.0517 64.9767C21.5895 62.3985 22.5492 59.8673 23.9111 57.6216C24.1683 57.1809 24.7589 57.0257 25.2041 57.2862V57.2861Z" fill="black"/>
<path d="M26.5726 61.3684C27.6774 60.2684 29.3627 61.9478 28.2676 63.0601C27.1198 64.2096 25.9524 65.3552 24.7224 66.4054C24.2572 66.7441 23.5417 66.5037 23.4593 65.8918C23.4329 65.7173 23.4723 65.5391 23.5582 65.3877C24.3563 63.9395 25.4346 62.5926 26.5726 61.3684Z" fill="black"/>
<path d="M113.079 62.784C113.538 65.0717 113.033 68.1169 111.008 69.4964C109.923 70.2474 108.789 70.7606 107.489 70.8692C106.493 71.024 105.487 71.2742 104.468 71.1363C104.3 71.1293 104.132 71.1195 103.967 71.1034C104.386 71.459 104.788 71.8408 105.227 72.1997C105.748 72.8149 106.203 73.5133 106.691 74.1421C106.955 74.7215 107.347 75.4981 107.542 76.0149C107.888 77.0125 107.865 77.8586 107.895 78.8367C107.568 81.0919 106.978 83.9462 104.841 85.1083C104.29 85.4404 103.624 85.6351 103.063 85.9244C102.212 86.3886 101.48 86.8067 100.613 87.1693C99.31 87.6594 97.8457 87.752 96.4904 87.7714C95.7811 87.7356 94.7291 87.3142 94.9467 86.4352C95.0556 86.0401 95.4744 85.7439 95.89 85.8158C97.0313 86.05 98.245 85.7241 99.2737 85.2731C100.174 84.9472 101.223 84.8085 101.899 84.0776C101.876 84.0977 101.853 84.1175 101.827 84.1401C103.33 82.6854 104.597 80.9138 105.214 78.9615C105.319 78.0468 105.438 77.4471 105.289 76.6043C105.052 74.9981 104.046 73.7039 102.756 72.7693C101.869 71.9298 100.725 71.2549 99.5147 71.0475C98.591 70.8134 97.7635 70.2668 96.7969 70.1883C94.5806 70.0628 92.3512 70.4714 90.4419 71.5475C88.4596 72.4072 87.1799 74.1648 85.7057 75.6595C85.1748 76.1895 84.7231 77.1512 83.8426 77.003C82.2165 76.7623 82.84 74.6487 83.341 73.7105C83.892 72.5912 84.967 72.0578 85.95 71.3862C86.8405 70.7315 87.6386 69.938 88.6775 69.5068C90.5736 68.6277 92.6645 67.9891 94.7623 68.1471C95.9595 68.1899 97.163 68.134 98.2678 68.4566C97.4235 67.7582 97.0906 66.5701 96.5694 65.678C96.1571 64.7628 96.1804 63.887 95.8834 62.985C95.8143 62.5109 96.497 62.3627 96.7213 62.7216C97.2026 63.4224 97.3446 64.3018 97.7634 65.036C98.2052 65.7434 98.5779 66.5636 99.2242 67.0903C100.309 67.729 101.226 68.4566 102.433 68.7919C104.303 69.2824 106.266 68.8878 108.096 68.4429C110.738 67.4161 112.245 64.8479 111.081 62.1388C110.688 61.47 111.599 60.766 112.149 61.3153C112.585 61.7107 112.921 62.2173 113.079 62.784Z" fill="black"/>
<path d="M78.1437 69.6351C78.8132 70.8861 78.78 72.3276 78.8132 73.7005C78.6745 75.7712 77.5468 77.9704 75.5877 78.7774C75.6139 78.7638 75.6372 78.7507 75.6733 78.7346C75.69 78.728 75.7032 78.7177 75.7163 78.7112C73.9552 79.4226 72.171 79.9362 70.3076 79.7947C68.9157 79.742 67.5374 79.4194 66.2311 78.9712C65.8322 78.7839 65.4266 78.7111 65.0407 78.5271C64.579 78.3131 64.2954 77.9802 63.8732 77.7403C62.4318 76.9761 61.2876 75.7185 60.7003 74.2303C60.7071 74.2336 60.7104 74.2336 60.717 74.2369C60.3738 73.5262 61.3335 73.3056 61.68 73.8155C61.9802 74.1451 62.2044 74.5632 62.5606 74.8332C63.2695 75.613 64.2558 76.1072 65.1099 76.6406C65.6706 77.0879 66.317 77.0747 66.9404 77.3446C68.1606 77.796 69.5161 77.7269 70.7658 77.6282C71.6994 77.6014 72.4017 77.4434 73.2296 77.1442C74.4862 76.9661 75.5383 76.492 76.2669 75.4418C76.6959 74.9282 76.9991 74.2961 77.1708 73.6541C77.2728 72.3241 77.0751 71.0599 76.4648 69.9142C76.3298 69.0747 74.8949 68.2846 75.7461 67.4652C76.2902 67.0438 76.7748 67.6134 77.0914 68.0179C77.6589 68.3932 77.8666 69.0521 78.1437 69.6348V69.6351Z" fill="black"/>
<path d="M75.1324 185.098C75.4686 185.098 75.7885 185.388 75.7753 185.737C75.7062 186.995 75.5941 188.394 75.0926 189.5C74.2254 192.591 72.3552 195.073 68.8464 194.655C67.4777 194.557 66.1682 193.951 65.0933 193.098C64.7338 193.644 63.7046 193.904 63.0979 193.78C60.6113 193.763 59.0249 191.738 57.8574 189.826C56.5382 188.147 56.1194 185.885 55.4167 183.926C54.7408 180.848 54.457 176.855 56.967 174.55C57.1682 174.392 57.4551 174.129 57.7319 174.201C58.0751 174.207 58.1969 174.622 57.9696 174.849C56.2381 177.128 56.2348 180.005 57.0393 182.632C57.4947 184.429 58.1013 186.171 58.9161 187.787C60.2252 189.342 61.4883 190.942 63.3552 191.804C63.5597 191.89 63.7708 192.045 63.995 192.061C63.9618 192.028 63.9324 191.995 63.9025 191.959C63.4607 191.202 63.1408 190.385 62.8869 189.542C61.8249 186.227 61.2674 182.53 62.6987 179.248C62.4843 178.514 63.563 178.487 63.5859 179.169C63.5397 180.587 63.2758 181.98 63.3585 183.409C63.619 185.141 63.9356 186.869 64.4862 188.482C64.7995 189.24 65.09 189.997 65.4822 190.718C65.9837 191.198 66.5475 191.567 67.138 191.912C68.1866 192.466 69.453 192.792 70.6106 192.495C71.5771 192.4 72.5696 191.887 72.9557 190.984C73.5823 189.638 74.2287 188.413 74.2912 186.961C74.4561 186.336 74.2516 185.167 75.1324 185.098V185.098Z" fill="black"/>
<path d="M60.7874 65.3477C60.7872 65.349 60.7868 65.3494 60.7868 65.3506C60.7854 65.3586 60.7837 65.3665 60.7822 65.3739C60.7841 65.3648 60.7855 65.3564 60.7874 65.3477V65.3477Z" fill="#FF0020"/>
<path d="M60.9782 64.2935C60.9781 64.2955 60.9781 64.2985 60.9781 64.3009C60.9753 64.3142 60.9724 64.3259 60.9697 64.3371C60.9724 64.3221 60.9753 64.3072 60.9782 64.2935Z" fill="#FF0020"/>
<path d="M85.7691 76.6697C85.7742 76.6684 85.7796 76.6677 85.7849 76.6672C85.7625 76.801 85.7023 76.9302 85.5972 77.0372C85.6541 76.9146 85.7111 76.792 85.7691 76.6698V76.6697Z" fill="#FF0020"/>
<path d="M129.447 66.4252C130.034 66.731 129.774 67.7121 129.104 67.6791C128.913 67.6627 128.742 67.6264 128.583 67.5775C128.768 67.798 128.946 68.0219 129.127 68.2421C129.605 68.8182 128.923 69.7076 128.237 69.3915C126.209 68.6274 124.035 68.0907 121.872 67.9627C120.82 67.9035 119.682 67.88 118.653 67.7389C118.623 67.7422 118.59 67.7454 118.557 67.7487C118.521 68.8842 118.415 70.0072 118.204 71.0998C118.194 71.7026 117.766 72.3047 117.11 72.2092C117.057 72.2027 117.007 72.1895 116.961 72.1767C116.941 72.2454 116.908 72.3183 116.865 72.3907C116.186 74.1384 114.059 73.8524 112.545 73.875C110.461 73.9804 108.363 74.1355 106.275 74.0829C105.675 74.0105 105.045 74.1055 104.462 73.9545C104 73.7405 104.211 73.1084 104.669 73.052C107.443 72.4693 111.048 72.3775 113.92 72.1401C114.59 72.1701 115.121 71.8706 115.5 71.3373C115.741 71.0866 116.044 71.034 116.315 71.1134C116.315 70.9653 116.328 70.8138 116.354 70.6719C116.42 69.4444 116.354 68.206 116.42 66.9748C116.605 63.6897 116.502 60.2822 115.701 57.0949C114.867 56.0155 113.175 56.5916 111.998 56.5517C110.629 56.7032 109.313 56.2756 107.954 56.4172C104.759 56.2917 101.635 56.8517 98.4756 57.1377C97.2753 57.1579 94.2475 57.1184 94.7886 58.9385C94.9764 59.7813 95.0819 60.5389 95.3328 61.3517C95.6723 63.0147 95.5802 64.7262 96.1868 66.2966C96.3848 67.0015 96.82 67.6863 96.7837 68.4303C96.7015 68.9797 96.0253 69.2797 95.5834 68.9142C95.5812 68.9164 95.5802 68.9186 95.5802 68.9208C94.3498 67.4295 93.9177 65.4969 93.5121 63.6402C93.3967 63.6167 93.2845 63.5674 93.1693 63.492C92.5888 63.0179 91.8534 63.1233 91.2463 63.1562C90.6232 63.1954 89.9999 63.2019 89.3766 63.2415C87.701 63.39 85.8807 63.7357 84.4821 64.6971C84.3075 64.8151 84.1194 65.0526 83.925 65.2765C85.211 69.3485 85.6001 73.7864 84.7857 77.7864C84.0105 79.472 81.8736 79.8741 80.3433 80.6444C77.154 82.1584 73.7572 82.8991 70.3636 83.7321C67.9228 84.1567 65.5254 85.4049 63.0816 85.5464C61.7292 85.2629 60.2453 85.1576 59.2161 84.1308C57.455 82.853 55.9775 81.2435 54.7177 79.4954C54.487 79.074 54.2297 78.6592 53.9626 78.2472C53.9789 78.3299 54.0022 78.4118 54.0251 78.4913C54.0317 78.5044 54.035 78.5172 54.0382 78.5304C53.5833 78.8333 53.1346 79.1398 52.7059 79.4588C52.0858 79.8999 51.512 80.1309 50.8988 80.5062C49.7113 81.3819 48.6493 81.9152 47.5544 82.8239C45.833 83.9889 44.3817 85.1876 42.9108 86.5638C39.5336 89.5922 35.8995 92.358 32.4168 95.2485C31.2031 96.1506 27.2587 99.9559 25.5239 99.9559C25.3458 99.9559 25.1941 99.9164 25.0686 99.8313C24.8874 99.6531 24.8907 99.3934 25.0125 99.1926C25.0125 99.1959 25.0092 99.1992 25.0026 99.2057C25.0325 99.1366 25.0686 99.0637 25.1148 99.0012C25.0653 98.9819 25.0158 98.9485 24.9765 98.9024C24.4419 98.297 26.0712 97.4802 26.3812 96.9736C28.393 95.2283 30.1937 93.2402 32.1296 91.4427C35.7081 88.532 38.9862 85.3324 42.703 82.5999C45.8493 80.1469 48.8043 77.467 51.7692 74.7975C51.3803 74.0465 51.0767 73.2666 50.9282 72.4304C50.9348 72.325 50.9548 72.2094 50.9944 72.1041C50.4206 70.9127 50.0611 69.6646 50.2422 68.2917C50.7372 66.6955 52.2576 65.5267 53.5633 64.5786C55.2948 63.4654 57.1749 62.3826 59.0512 61.5724C60.7299 60.7036 62.6562 60.2098 64.3975 59.5543C66.993 58.6127 69.516 57.8621 72.2006 57.3753C74.7662 56.7692 77.4145 57.1939 80.0136 57.2766C80.4816 57.2766 80.7884 57.5762 80.9005 57.9379C80.9401 57.9548 80.9766 57.9873 81.006 58.0268C81.1149 58.1721 81.105 58.3795 80.9929 58.5107C81.4449 59.2383 82.2958 59.5251 82.7806 60.2198C83.3577 60.0683 83.961 59.9724 84.525 59.8939C84.7198 59.8836 84.9142 59.8803 85.1088 59.8836C86.1413 59.5844 87.2065 59.4062 88.2913 59.3144C89.2906 59.1363 90.3627 58.4354 91.3752 58.7708C91.3882 58.7774 91.4013 58.7844 91.4115 58.7943C91.4475 58.7877 91.4807 58.7807 91.517 58.7741C91.6786 58.2342 91.8402 57.4906 92.3413 57.2433C92.2984 56.9408 92.2624 56.6412 92.48 56.407C92.6513 56.2626 92.9217 56.282 93.0703 56.4466C94.3927 54.2276 97.3446 54.9815 99.4883 54.5704C103.228 53.5659 107.103 53.7375 110.903 54.1687C113.168 54.1255 116.001 53.612 117.449 55.7424C117.459 55.7551 117.465 55.7651 117.472 55.7782C118 56.496 118.082 57.3622 118.115 58.1783C118.501 59.7684 118.346 61.2601 118.465 62.8202C118.468 62.9161 118.475 63.0116 118.478 63.1103C118.669 63.0441 118.897 63.0441 119.012 63.2288C120.572 63.3177 122.056 63.8275 123.551 64.2424C125.203 64.6209 126.71 65.0691 128.217 65.8193C128.62 66.0567 129.028 66.2346 129.447 66.4255V66.4252ZM92.6251 61.1116C92.714 61.1215 92.7999 61.1309 92.8854 61.1441C92.8756 61.1083 92.869 61.0783 92.8624 61.0454C92.79 61.075 92.7107 61.0981 92.6251 61.1116ZM82.9916 77.1906C83.8227 74.0363 82.9752 70.7478 82.1043 67.6861C81.7844 65.8425 81.026 64.3014 80.5311 62.5371C80.1356 61.5297 79.4331 60.6767 78.9382 59.7154C78.892 59.6166 78.8658 59.5178 78.8593 59.4195C77.2169 59.5972 75.5283 59.4326 73.8991 59.7355C71.5638 60.2915 69.2453 60.7528 66.9996 61.4869C66.4686 61.661 65.9605 61.7828 65.4757 61.9511C62.2505 63.0178 59.025 64.2063 56.0799 65.921C54.7144 66.5997 53.5405 67.554 52.663 68.7786C52.3103 71.0437 53.6988 73.0293 54.1504 75.1457C55.4269 77.1807 56.6406 79.2576 58.2797 80.9893C58.2731 80.9799 58.2663 80.9733 58.2597 80.9634C58.3059 81.0091 58.3424 81.0552 58.3819 81.1013L58.3852 81.1045C59.6251 82.2206 60.7631 83.7383 62.524 83.8832C63.7247 84.3111 64.9019 83.521 66.0793 83.2416C69.4334 81.9869 73.0712 81.4573 76.3264 80.0972C78.5655 79.179 80.8972 78.3462 82.9916 77.1906Z" fill="black"/>
</g>
<defs>
<clipPath id="clip0_360_6562">
<rect width="192" height="230" fill="white" transform="translate(0.106934 0.113281)"/>
</clipPath>
</defs>
</svg>
