<svg viewBox="0 0 398 380" fill="none" xmlns="http://www.w3.org/2000/svg" preserveAspectRatio="none">
  <path d="M72.8529 302.12C68.7004 302.557 64.9058 302.298 60.8337 302.075C49.4232 302.575 36.921 301.672 27.2558 295.077C19.3534 288.552 17.4651 278.154 15.38 268.675C11.9254 256.755 13.0351 244.145 11.8271 232.001C10.1535 209.297 9.21392 186.396 7.93415 163.763C6.87798 134.596 -1.66849 105.941 0.631476 76.6666C0.586571 75.2716 1.40996 72.5688 3.19994 74.0266C3.89779 74.699 3.37886 75.6285 3.36099 76.4531C3.02971 80.006 2.85974 83.4336 3.01186 86.9765C3.76355 101.923 5.17757 116.824 7.8535 131.545C12.346 163.647 12.1671 196.23 14.8966 228.467C16.3553 243.251 15.6125 258.088 19.8457 272.38C21.4922 279.926 23.8372 287.363 29.672 292.534C38.72 298.011 49.6738 299.273 60.0192 298.602C65.5679 299.121 71.0897 298.736 76.5846 298.683C83.3715 299.214 90.2034 299.397 97.0329 299.397C97.2623 300.309 97.5237 301.209 97.7856 302.111C97.8454 302.318 97.9052 302.527 97.9652 302.735C89.6057 302.699 81.1421 302.43 72.8527 302.12L72.8529 302.12Z" fill="black"/>
  <path d="M130.236 297.18C130.238 297.058 130.239 296.936 130.24 296.813C138.17 295.299 146.152 293.938 154.203 294.207C163.474 293.67 173.122 292.257 182.268 293.035C186.626 293.473 190.886 292.892 195.155 292.687C199.701 292.373 204.31 292.418 208.91 292.462C214.915 292.516 220.911 292.58 226.791 291.855C241.405 291.227 256.109 292.132 270.679 290.557C290.009 290.378 309.376 289.921 328.724 289.321C335.329 289.412 341.629 288.784 348.18 288.614C354.042 288.705 360.02 289.052 365.568 286.843C372.2 283.836 377.829 279.173 382.483 273.731C388.917 263.933 391.217 252.137 392.488 240.736C392.936 233.12 392.381 225.522 391.003 218.031C389.768 206.584 389.463 195.032 388.04 183.603C386.062 171.1 386.421 158.429 385.409 145.854C384.264 132.744 381.874 119.741 380.532 106.638C378.831 89.0521 376.048 71.5741 372.979 54.2392C372.835 52.1821 376.218 51.4123 376.871 53.4964C377.48 55.2873 377.784 57.1488 378.187 58.9924C383.548 85.553 385.033 112.724 389.338 139.465C390.394 148.744 390.492 158.186 390.877 167.458C391.486 177.169 393.303 186.745 393.723 196.473C394.287 211.05 397.598 225.406 397.034 240.002C394.788 262.635 389.687 279.736 368.065 290.557C362.32 292.919 356.216 293.403 350.068 293.044C346.847 293.027 343.687 293.205 340.537 293.384C337.217 293.573 333.897 293.769 330.532 293.734C310.727 294.1 290.913 294.78 271.117 294.807C262.239 295.782 253.218 295.764 244.242 295.756C238.622 295.748 233.011 295.73 227.462 295.971C221.332 296.741 215.156 296.624 208.999 296.507C204.632 296.428 200.273 296.355 195.933 296.589C191.109 297.171 186.295 297 181.489 296.839C176.916 296.687 172.343 296.535 167.805 297.027C156.081 298.243 144.635 297.412 133.126 299.818C132.408 300.01 131.688 300.191 130.968 300.362C130.727 299.299 130.481 298.238 130.236 297.179L130.236 297.18Z" fill="black"/>
  <path d="M2.2278 103.536C2.23009 101.956 4.69112 101.978 4.66202 103.553C4.65973 105.132 2.19847 105.111 2.2278 103.536Z" fill="black"/>
  <path d="M2.58219 89.36C2.08022 88.9662 2.06122 88.36 2.26008 87.8745C2.24611 87.916 2.23946 87.9292 2.22663 87.9684C2.29696 87.6933 2.34163 87.3498 2.37897 87.0433C2.37852 87.0422 2.37805 87.041 2.37782 87.0387C0.637551 82.7643 1.77003 77.982 1.68113 73.4804C0.992908 68.3881 -0.897671 63.3073 0.505588 58.1176C1.88525 54.3811 2.81451 50.6236 3.07454 46.6535C5.53489 34.6345 9.96827 23.1211 22.6824 19.142C31.1228 16.1719 40.0374 15.9247 48.5372 13.8262C65.6111 9.56735 83.2642 6.60183 100.73 4.93946C131.405 3.11717 161.962 4.76053 192.64 3.955C208.635 3.83976 224.563 3.24684 240.492 2.17418C262.672 1.69215 284.963 1.69421 307.12 0.902197C323.85 0.590158 341.201 -1.81955 357.451 3.02438C363.585 5.55025 368.782 10.7376 371.59 16.6274C373.47 21.253 373.048 26.2177 373.347 31.0772C374.29 35.1021 375.979 38.9806 376.567 43.0648C376.894 48.0529 377.765 53.0512 377.372 58.0539C377.299 59.8851 374.747 60.4334 374.034 58.6904C372.299 54.0334 372.801 48.8137 372.146 43.9686C371.715 39.7905 369.864 35.8526 369.021 31.735C368.736 25.0566 369.133 18.2181 364.288 12.9045C354.215 1.94485 337.613 4.95069 324.186 4.31309C307.796 5.01231 291.432 5.25173 275.036 5.41508C257.809 5.94087 240.341 5.52803 223.202 7.24974C204.071 7.76889 184.927 8.34165 165.792 7.96569C144.325 7.72284 122.629 7.61768 101.24 8.65918C88.4969 9.76209 75.581 11.9358 62.9993 13.9886C55.5638 16.0022 47.906 17.5796 40.4175 18.9521C30.2776 20.497 18.0904 21.6661 12.0721 31.0919C9.73456 35.7981 7.6754 40.7181 6.42129 45.7756C5.93261 50.4012 4.99258 54.8682 3.20924 59.1706C2.58631 62.9137 3.02985 66.5997 4.07708 70.1985C5.05535 74.3711 3.87549 78.7282 4.09131 82.968C4.04365 84.6393 5.07964 86.1988 4.7479 87.8197C4.77287 88.897 3.66447 90.2015 2.58219 89.3602V89.36Z" fill="black"/>
  <path d="M85.9673 379.383C84.8525 378.712 85.1856 377.052 85.661 376.075C86.0216 375.108 86.3139 374.139 86.5354 373.157C89.465 359.719 94.7204 346.866 96.2325 333.141C97.2889 325.936 97.9943 318.647 97.8046 311.402C97.2729 308.276 96.4132 305.196 96.2591 302.016C96.2591 302.025 96.2595 302.034 96.2591 302.03C96.2591 302.036 96.2596 302.04 96.2602 302.055C95.6476 300.1 96.8401 298.092 98.7921 299.5C99.7069 300.777 99.3236 302.517 100.143 303.877C102.904 312.801 101.418 322.108 99.9284 331.136C97.9822 345.27 93.2077 358.734 90.0211 372.601C101.344 360.028 109.999 345.153 119.152 331.002C124.593 321.42 126.68 310.476 129.383 299.973C129.14 296.359 134.027 295.598 134.017 299.447C132.927 305.006 131.466 310.614 129.784 315.932C127.966 319.725 126.263 323.435 125.023 327.422C120.62 337.783 113.692 346.86 107.446 356.141C101.27 364.276 96.0391 373.137 87.7497 379.251C87.231 379.622 86.5286 379.732 85.9673 379.383V379.383Z" fill="black"/>
  <path d="M391.004 218.037C392.382 225.517 392.937 233.124 392.489 240.731C391.218 252.133 388.919 263.929 382.484 273.738C377.831 279.179 372.201 283.832 365.57 286.84C360.021 289.059 354.043 288.701 348.181 288.611C341.63 288.789 335.33 289.417 328.725 289.327C309.377 289.918 290.011 290.382 270.68 290.562C256.11 292.138 241.406 291.224 226.792 291.851C220.913 292.585 214.916 292.512 208.911 292.46C204.311 292.424 199.703 292.369 195.156 292.691C190.887 292.889 186.628 293.48 182.269 293.032C173.123 292.262 163.476 293.676 154.204 294.214C146.15 293.935 138.167 295.297 130.238 296.817V297.185C130.265 297.292 130.291 297.407 130.318 297.515C129.719 298.026 129.307 298.867 129.379 299.976C126.676 310.474 124.591 321.419 119.149 331.004C110.003 345.153 101.34 360.027 90.0192 372.6C93.2051 358.738 97.9843 345.27 99.9262 331.139C101.421 322.109 102.906 312.801 100.141 303.879C99.3266 302.518 99.7115 300.782 98.7896 299.503C97.8858 298.848 97.143 298.93 96.6685 299.394C89.9656 299.385 83.2447 299.207 76.5862 298.687C71.0914 298.742 65.5696 299.116 60.0211 298.598C49.6755 299.278 38.7216 298.008 29.6739 292.53C23.8388 287.357 21.4939 279.929 19.8474 272.377C15.6142 258.094 16.3572 243.255 14.8983 228.471C12.1687 196.236 12.3479 163.641 7.85519 131.55C6.22649 122.572 5.0631 113.533 4.23077 104.469C4.49034 104.281 4.66034 103.976 4.66034 103.555C4.66927 103.037 4.41862 102.687 4.06077 102.508C3.69374 98.2124 3.38947 93.9167 3.15671 89.6121C4.02478 89.7463 4.76777 88.7094 4.7499 87.8232C5.08096 86.2023 4.0429 84.6362 4.08758 82.9726C3.87268 78.7294 5.05415 74.3723 4.07863 70.2019C3.03163 66.6032 2.58394 62.9171 3.21054 59.1663C4.99136 54.8706 5.93118 50.4049 6.42329 45.779C7.67626 40.7138 9.7345 35.7993 12.0704 31.0921C18.0933 21.6696 30.2824 20.4961 40.422 18.949C47.9036 17.5787 55.5641 16.0036 63.001 13.9909C75.5839 11.9327 88.4978 9.7658 101.242 8.65717C122.631 7.61796 144.324 7.72541 165.793 7.96803C184.927 8.34399 204.07 7.77123 223.204 7.25208C240.342 5.52487 257.811 5.93657 275.038 5.41627C291.434 5.25636 307.793 5.01351 324.188 4.31543C337.612 4.95188 354.213 1.94489 364.29 12.9068C369.132 18.2138 368.738 25.0601 369.024 31.7373C369.865 35.8541 371.718 39.7905 372.147 43.97C372.693 48.0162 372.434 52.3209 373.347 56.3481C376.273 72.9849 378.905 89.7637 380.533 106.634C381.875 119.735 384.265 132.747 385.411 145.851C386.422 158.433 386.064 171.104 388.041 183.599C389.464 195.035 389.769 206.581 391.004 218.036V218.037Z" fill="white"/>
</svg>