<svg viewBox="0 0 342 264" fill="none" xmlns="http://www.w3.org/2000/svg" preserveAspectRatio="none">
  <path d="M285.395 205.56C289.256 205.465 292.974 205.102 296.582 204.788C307.557 204.373 322.08 204.932 327.584 193.357C330.159 187.945 332.776 182.448 334.317 176.64C335.748 171.262 335.333 165.596 336.426 160.169C339.703 147.966 340.406 135.373 340.042 122.796C340.668 115.176 341.447 107.588 341.32 99.9314C341.955 93.2169 340.042 86.6709 339.584 80.0401C339.28 71.3768 338.619 62.7973 338.356 54.1774C337.891 47.4195 337.874 40.8217 338.729 34.1579C338.636 24.8584 338.848 7.77752 326.619 6.88108C321.369 6.44814 316.034 6.50842 310.919 7.88787C305.567 7.99062 300.223 8.04873 294.879 7.93014C279.408 7.61688 263.97 5.20334 248.574 4.476C221.492 3.67149 194.376 3.62919 167.302 2.40973C150.111 2.63737 132.903 2.5706 115.704 2.51033C103.882 2.46806 92.0681 2.42666 80.2464 2.47652C74.7247 2.58774 68.9918 2.10386 63.2245 1.62237C48.7692 0.40291 34.0761 -0.816541 21.797 7.43176C17.5286 10.4623 12.2276 12.5552 9.17883 16.9747C7.11258 20.9813 5.02963 25.2157 4.58066 29.6944C4.36865 34.133 3.95392 38.6212 3.00546 42.9317C0.854218 50.7555 -0.339874 58.8768 0.549622 66.9896C1.72635 73.6542 3.08133 80.1242 3.36966 86.8577C3.98752 98.9496 3.15762 111 3.25104 123.085C3.20834 130.885 1.70099 138.362 2.20917 146.136C2.23453 152.132 2.21762 158.137 3.93698 163.937C4.58911 171.829 5.43591 179.359 7.9765 186.886C9.11121 191.933 7.95935 198.895 13.8871 201.063C21.2123 204.619 29.613 204.128 37.5398 204.636C54.1208 205.526 70.7277 203.721 87.2154 202.629C101.73 201.528 116.313 202.73 130.87 202.891C142.252 202.739 153.625 203.018 164.998 203.306C174.906 203.552 184.815 203.798 194.723 203.764C208.683 203.101 222.71 202.131 236.68 202.863C236.793 201.682 236.941 200.499 237.147 199.329C222.431 198.747 207.701 199.81 192.995 200.385C173.357 200.3 153.76 199.039 134.114 199.454C128.279 199.512 122.436 199.293 116.601 199.063C108.285 198.743 99.9604 198.411 91.6278 198.945C73.1154 200.267 54.7135 202.501 36.1422 201.511C29.1136 201.063 21.4749 201.596 15.0645 198.319C14.048 197.734 13.1253 197.286 12.4647 196.379C11.9058 194.753 11.8211 192.959 11.6518 191.238C11.4566 186.233 9.25494 181.313 8.39148 176.496C7.47681 172.871 7.69705 169.153 7.26477 165.469C5.88446 159.101 5.07144 152.741 5.28348 146.213C4.82584 139.31 5.97791 132.485 6.33344 125.617C6.08801 118.106 6.75702 110.585 6.82468 103.158C6.78262 91.3699 6.85007 79.5649 4.19977 67.9979C2.81079 58.8595 4.93619 49.8584 6.86694 40.991C7.73953 36.9695 7.69705 32.692 8.0864 28.6694C9.43289 23.2929 11.4654 17.5852 16.5298 14.7229C30.0625 4.9757 38.9624 2.92527 55.4508 4.50048C71.0158 5.65317 86.5212 5.6703 102.12 5.60982C112.545 5.74531 123.224 5.66162 133.894 5.58445C148.976 5.46586 164.05 5.34728 178.362 5.85544C203.234 7.00812 228.156 6.39742 253.02 7.52366C270.431 8.66789 287.664 11.1313 305.1 10.5225C305.16 11.3609 305.973 11.868 306.76 11.6902C308.945 11.2425 311.105 10.8603 313.298 10.513C314.89 10.2938 316.626 10.1065 318.218 10.0981C318.785 10.1065 319.387 10.4792 319.912 10.0812C331.014 9.7434 332.505 12.4015 334.012 23.005C335.358 29.584 334.232 35.7151 333.775 42.2369C333.597 48.7227 334.427 55.1673 334.452 61.655C334.842 68.8774 335.18 75.5603 335.731 82.6483C337.577 92.1657 337.704 101.786 337.01 111.44C335.841 121.018 336.442 130.622 335.951 140.217C335.062 151.53 331.886 162.378 331.268 173.71C330.057 179.646 327.271 185.091 324.781 190.587C323.519 193.508 321.377 196.303 318.413 197.498C314.323 199.918 309.555 200.106 304.982 200.495C301.095 200.444 297.233 200.792 293.38 201.138C289.315 201.495 285.259 201.859 281.16 201.773C274.604 201.517 268.054 201.204 261.507 200.84C261.399 201.944 261.257 203.036 261.031 204.127C261.011 204.227 260.989 204.323 260.966 204.42C262.545 204.495 264.125 204.562 265.705 204.627C271.257 205.051 276.826 205.617 282.414 205.617C283.407 205.617 284.4 205.599 285.394 205.559L285.395 205.56Z" fill="black"/>
  <path d="M269.322 263.527C270.874 262.819 269.866 261.08 269.424 259.979C268.438 256.985 267.423 254.119 266.587 251.12C261.912 235.722 259.481 219.451 261.319 203.451C264.169 203.878 263.461 199.982 260.947 200.411C256.255 200.917 257.793 209.335 257.475 212.766C257.747 225.828 260.161 238.785 263.964 251.266C260.598 243.295 257.039 235.345 252.165 228.179C247.717 219.613 242.863 211.08 238.776 202.419C238.462 201.693 238.368 200.83 237.693 200.328C236.433 199.249 234.479 200.65 234.889 202.123C236.465 207.393 239.439 212.408 241.969 217.238C246.325 226.147 251.83 234.388 256.73 242.982C259.92 249.41 262.855 255.875 266.731 261.926C267.273 262.858 268.156 264.032 269.322 263.528V263.527Z" fill="black"/>
  <path d="M6.86282 40.9945C4.93228 49.86 2.81488 58.8629 4.20364 67.9992C6.84613 79.5681 6.77805 91.3731 6.82919 103.161C6.76114 110.588 6.08362 118.107 6.33771 125.62C5.98239 132.486 4.83041 139.313 5.28763 146.215C5.06778 152.744 5.88074 159.104 7.26929 165.472C7.69269 169.156 7.47263 172.873 8.38705 176.497C9.25119 181.316 11.453 186.237 11.6559 191.242C11.8254 192.961 11.91 194.756 12.4689 196.382C13.1294 197.288 14.044 197.737 15.0602 198.32C21.4796 201.597 29.1178 201.064 36.1467 201.514C54.7095 202.504 73.12 200.269 91.6323 198.948C99.9649 198.414 108.281 198.743 116.597 199.066C122.44 199.294 128.283 199.515 134.11 199.456C153.757 199.04 173.353 200.303 192.999 200.386C207.701 199.811 222.427 198.743 237.146 199.329C237.103 199.548 237.069 199.769 237.035 199.998C237.264 200.04 237.493 200.15 237.696 200.328C238.365 200.828 238.458 201.691 238.78 202.419C242.862 211.082 247.714 219.61 252.168 228.181C257.038 235.344 260.595 243.296 263.965 251.266C260.163 238.783 257.749 225.825 257.478 212.768C257.792 209.337 256.259 200.92 260.95 200.413C261.67 200.286 262.238 200.522 262.619 200.903C268.792 201.243 274.974 201.531 281.156 201.776C285.255 201.86 289.32 201.497 293.385 201.141C297.229 200.793 301.091 200.447 304.986 200.496C309.559 200.107 314.318 199.922 318.417 197.498C321.381 196.304 323.515 193.511 324.785 190.588C327.275 185.093 330.053 179.647 331.272 173.712C331.882 162.381 335.066 151.533 335.947 140.218C336.438 130.624 335.845 121.021 337.014 111.443C337.708 101.789 337.573 92.1689 335.727 82.6494C335.185 75.5613 334.846 68.8807 334.457 61.6561C334.423 55.1703 333.593 48.7248 333.779 42.238C334.236 35.7173 335.354 29.5873 334.016 23.0061C332.509 12.4047 331.018 9.74447 319.908 10.0844C319.383 10.4824 318.79 10.1087 318.214 10.1013C316.622 10.1087 314.894 10.2951 313.302 10.5152C311.1 10.8633 308.949 11.2434 306.765 11.6934C305.969 11.8701 305.155 11.3622 305.105 10.5236C287.66 11.1343 270.435 8.66896 253.024 7.52689C228.16 6.40066 203.229 7.00919 178.366 5.85868C164.054 5.35051 148.98 5.4691 133.89 5.58768C123.22 5.66291 112.549 5.74855 102.116 5.61306C86.5173 5.67137 71.0201 5.65424 55.4551 4.50372C38.9585 2.92743 30.0663 4.97698 16.5339 14.7242C11.4699 17.5865 9.43741 23.2942 8.08246 28.6717C7.6929 32.6954 7.74384 36.9708 6.86301 40.9945H6.86282Z" fill="white"/>
</svg>