<svg width="13" height="13" viewBox="0 0 13 13" fill="none" xmlns="http://www.w3.org/2000/svg">
<path fill-rule="evenodd" clip-rule="evenodd" d="M5.37804 1.82761C5.25773 1.95098 5.20383 2.09756 5.19415 2.27085C5.18067 2.51214 5.25501 2.81329 5.4097 3.15083C5.71863 3.82491 6.2854 4.50987 6.70482 4.88995C6.82449 4.99839 6.86509 5.16929 6.80697 5.31997C6.74886 5.47065 6.60401 5.57003 6.44252 5.57003C6.41076 5.57003 6.37835 5.57001 6.34534 5.57C5.6683 5.56969 4.73866 5.56926 3.95258 5.69425C3.53846 5.7601 3.1986 5.856 2.96609 5.98387C2.73839 6.10909 2.66969 6.23015 2.65936 6.34229C2.63312 6.62696 2.67004 7.08307 2.77299 7.62646C2.87456 8.16262 3.03517 8.75661 3.2395 9.30796C3.44522 9.86306 3.68801 10.3552 3.94618 10.7007C4.21736 11.0636 4.43641 11.1754 4.58011 11.1754C5.56572 11.1754 8.40067 10.8296 10.3488 10.4626V6.30378L9.17213 5.50224C9.16373 5.49651 9.15556 5.49047 9.14763 5.48411C8.32757 4.82631 7.474 3.92694 6.76508 3.17999C6.68347 3.09399 6.60377 3.01002 6.52627 2.92867C6.14371 2.52714 5.82033 2.19545 5.57165 1.9806C5.49173 1.91155 5.42757 1.86173 5.37804 1.82761ZM9.6247 4.86524C8.85265 4.2439 8.04222 3.39036 7.33035 2.64063C7.24953 2.5555 7.16998 2.47172 7.0919 2.38977C6.71443 1.99358 6.36483 1.63344 6.08241 1.38943C5.94349 1.26941 5.80047 1.15935 5.66473 1.08918C5.59692 1.05413 5.50998 1.01785 5.41192 1.00491C5.30851 0.991272 5.17249 1.00199 5.04726 1.08929C4.63004 1.38012 4.43866 1.78797 4.41412 2.22727C4.39069 2.64668 4.51843 3.08127 4.69948 3.47632C4.91441 3.94529 5.22661 4.40598 5.54497 4.79379C5.00009 4.80402 4.38583 4.8343 3.8299 4.92269C3.38275 4.99379 2.93888 5.10724 2.58962 5.2993C2.23556 5.49402 1.92446 5.80347 1.88141 6.27059C1.84528 6.66257 1.89747 7.20223 2.00539 7.77187C2.11467 8.34874 2.28666 8.98506 2.50694 9.57944C2.72582 10.1701 2.99964 10.7391 3.32035 11.1683C3.62804 11.5801 4.05014 11.9566 4.58011 11.9566C5.69584 11.9566 8.85328 11.5603 10.816 11.1678C10.9986 11.1313 11.13 10.9709 11.13 10.7847V6.09723C11.13 5.96801 11.0661 5.84715 10.9593 5.7744L9.6247 4.86524Z" />
</svg>
